<?xml version="1.0" standalone="no"?>
<!DOCTYPE svg PUBLIC "-//W3C//DTD SVG 1.1//EN" "http://www.w3.org/Graphics/SVG/1.1/DTD/svg11.dtd" >
<svg xmlns="http://www.w3.org/2000/svg">
<metadata>
This is a custom SVG webfont generated by Font Squirrel.
Copyright   :  2008 Adobe Systems Incorporated All Rights Reserved
Designer    : Robert Slimbach
Foundry     : Adobe Systems Incorporated
Foundry URL : httpwwwadobecomtype
</metadata>
<defs>
<font id="AdobeCleanBold" horiz-adv-x="1118" >
<font-face units-per-em="2048" ascent="1464" descent="-584" />
<missing-glyph horiz-adv-x="473" />
<glyph unicode=" "  horiz-adv-x="473" />
<glyph unicode="&#x09;" horiz-adv-x="473" />
<glyph unicode="&#xa0;" horiz-adv-x="473" />
<glyph unicode="!" horiz-adv-x="626" d="M219 120.5q0 61.5 41 101.5t105 40q66 0 107.5 -39t41.5 -102.5t-41 -100t-108 -36.5q-63 0 -104.5 37.5t-41.5 99zM233 1163v148q0 16 11 22q43 25 123 25q86 0 127 -19q10 -6 10 -22v-148q0 -117 -16.5 -383t-24.5 -323q0 -12 -14 -12h-164q-10 0 -15 12 q-37 516 -37 700z" />
<glyph unicode="&#x22;" horiz-adv-x="815" d="M111 1450q-2 16 16 16h199q16 0 16 -16l-35 -508q-2 -14 -16 -14h-160q-18 0 -18 16zM479 1448q0 18 19 18h196q20 0 17 -20l-35 -504q0 -14 -17 -14h-159q-16 0 -17 16z" />
<glyph unicode="#" d="M78 430v150q0 10 10 10h193l55 207h-150q-8 0 -8 8v153q0 10 10 11h197l80 280q4 12 16 13h129q12 0 8 -13l-75 -280h186l78 284q2 8 10 9h133q12 0 8 -13l-77 -280h143q10 0 10 -13v-149q0 -10 -12 -10h-188l-56 -207h140q12 0 12 -10v-152q0 -12 -12 -12h-187l-86 -314 q-6 -14 -16 -14h-129q-16 0 -11 14l86 314h-186l-90 -316q-4 -12 -14 -12h-129q-16 0 -11 14l88 314h-143q-12 0 -12 14zM434 590h191l55 207h-188z" />
<glyph unicode="$" d="M115 989q0 131 94 229.5t258 122.5v154q0 12 10 12h174q12 0 13 -12v-149q178 -12 270 -78q8 -8 8 -23v-184q0 -20 -16 -8q-160 102 -355 102q-113 0 -165 -43t-52 -98q0 -57 58.5 -101.5t210.5 -103.5q229 -86 307 -177t78 -220q0 -152 -104.5 -240t-244.5 -109v-161 q0 -12 -12 -13h-172q-12 0 -12 15v149q-201 14 -336 103q-12 10 -12 30v191q0 18 18 8q190 -133 406 -133q109 0 162 37t53 98.5t-54.5 106.5t-197.5 100q-221 84 -304 170t-83 225z" />
<glyph unicode="%" horiz-adv-x="1712" d="M92 981q0 172 96.5 274.5t237.5 102.5q162 0 246 -102.5t84 -268.5q0 -147 -86 -259t-246 -112q-164 0 -248 102.5t-84 262.5zM281 987q0 -100 37.5 -161.5t111.5 -61.5q66 0 102.5 57.5t36.5 163.5q0 227 -143 227q-66 0 -105.5 -58t-39.5 -167zM322 18l884 1309 q6 8 19 8h157q6 0 8.5 -4t-1.5 -8l-881 -1313q-4 -10 -19 -10h-163q-10 0 -11 6q1 4 7 12zM956 346q0 170 96.5 272.5t237.5 102.5q160 0 245 -101.5t85 -267.5q0 -150 -86 -261t-246 -111q-162 0 -247 103t-85 263zM1145 350q0 -94 39 -158.5t108 -64.5q66 0 104 59.5 t38 163.5q0 106 -38 167t-106 61q-63 0 -104 -62t-41 -166z" />
<glyph unicode="&#x26;" horiz-adv-x="1456" d="M113 369q0 129 78.5 221t203.5 131q-137 125 -137 270q0 147 115.5 239.5t288.5 92.5q164 0 247 -51q10 -8 11 -25v-162q0 -23 -17 -10q-102 57 -219 58q-84 0 -129 -41t-45 -109q0 -102 166 -209h631q16 0 12 -16l-29 -158q-2 -16 -18 -16h-410q98 -74 221 -254 q104 -154 222 -154q6 0 47 4q14 0 14 -14v-143q0 -18 -16 -27q-33 -16 -115 -16q-113 0 -198 54t-181 208q-76 125 -183.5 230.5t-140.5 105.5q-59 0 -113 -51.5t-54 -133.5q0 -88 66.5 -151.5t178.5 -63.5q92 0 168 31q12 4 13 -12v-158q0 -14 -15 -21q-82 -39 -223 -38 q-193 0 -316.5 105.5t-123.5 283.5z" />
<glyph unicode="'" horiz-adv-x="452" d="M115 1450q0 16 14 16h205q12 0 12 -12l-37 -514q-2 -12 -16 -12h-162q-14 0 -14 14z" />
<glyph unicode="(" horiz-adv-x="722" d="M104 592q0 297 97.5 536.5t230.5 405.5q10 10 23 10h190q23 0 8 -18q-326 -436 -325 -922q0 -539 321 -940q4 -4 4 -8t-3 -7t-9 -3h-188q-18 0 -29 10q-137 156 -228.5 397.5t-91.5 538.5z" />
<glyph unicode=")" horiz-adv-x="724" d="M66 -338q328 430 327 924q0 545 -321 942q-12 16 8 16h190q16 0 29 -14q137 -158 226 -393.5t89 -538.5q0 -535 -319 -938q-12 -14 -29 -14h-188q-16 0 -17 7q1 4 5 9z" />
<glyph unicode="*" horiz-adv-x="694" d="M29 1096l61 121q4 10 16 4l199 -129l12 254q0 12 13 12l145 -19q12 -4 8 -12l-67 -252l229 72q12 2 14 -8l23 -131q2 -14 -6 -15l-242 -16l166 -211q6 -10 -2 -16l-111 -74q-2 -1 -4 -1l-12 7l-135 238l-174 -197q-6 -6 -15 0l-86 90q-8 8 0 14l201 170l-227 82 q-8 5 -6 17z" />
<glyph unicode="+" horiz-adv-x="1140" d="M61 461v147q0 14 15 15h403v421q4 12 13 13h157q14 0 15 -15v-419h403q12 0 12 -17v-145q0 -14 -14 -15h-401v-428q0 -10 -15 -10h-157q-12 0 -13 12v426h-401q-17 1 -17 15z" />
<glyph unicode="," horiz-adv-x="477" d="M8 -260q134 226 134 483q0 35 -3 70q0 12 13 12h198q14 0 17 -16q3 -41 3 -80q0 -281 -155 -473q-8 -12 -22 -12h-175q-14 0 -13 7q0 4 3 9z" />
<glyph unicode="-" horiz-adv-x="724" d="M109 426v178q0 14 14 14h481q12 0 12 -14v-178q0 -14 -12 -14h-481q-14 0 -14 14z" />
<glyph unicode="." horiz-adv-x="475" d="M88 129q0 68 42 109t107.5 41t107.5 -42t42 -108q0 -68 -40 -108.5t-109 -40.5q-66 0 -108 40.5t-42 108.5z" />
<glyph unicode="/" horiz-adv-x="751" d="M76 -74l405 1508q2 8 13 8h170q14 0 10 -10l-404 -1510q-4 -10 -14 -10h-170q-12 0 -10 14z" />
<glyph unicode="0" d="M78 670q0 301 128 494.5t355 193.5q109 0 194 -42t137 -108.5t86 -159t47 -184.5t13 -194q0 -141 -24.5 -260t-77.5 -218.5t-148.5 -155.5t-224.5 -56q-244 0 -364.5 190.5t-120.5 499.5zM330 670q0 -233 59.5 -366.5t173.5 -133.5q223 0 223 498q0 504 -227 503 q-102 0 -165.5 -126.5t-63.5 -374.5z" />
<glyph unicode="1" d="M193 18v164q2 16 18 17h250v907q-133 -47 -223 -66q-18 -2 -19 13v153q0 14 12 17q164 41 297 106q25 8 31 8h137q12 0 13 -12v-1126h237q16 0 19 -17v-162q2 -20 -15 -20h-745q-16 0 -12 18z" />
<glyph unicode="2" d="M94 16v125q0 14 8 23q215 178 402 364q121 123 168 207t47 180q0 104 -68.5 169t-191.5 65q-168 0 -328 -96q-20 -6 -20 12v168q0 12 12 20q172 104 393 105q211 0 329 -118t118 -296q0 -121 -49.5 -223.5t-155.5 -212.5q-129 -139 -318 -311q27 2 355 6h235q16 0 14 -15 l-40 -174q-6 -14 -21 -14h-874q-15 0 -15 16z" />
<glyph unicode="3" d="M113 94v182q0 20 16 13q180 -102 356 -103q139 0 203 58.5t64 146.5q0 94 -73 143.5t-200 49.5h-145q-16 0 -17 14v164q0 20 15 20h137q236 0 236 183q0 86 -62.5 139t-181.5 53q-158 0 -314 -92q-18 -8 -18 10v162q0 14 12 23q168 98 373 98q199 0 316.5 -97.5 t117.5 -252.5q0 -209 -205 -297v-2q109 -29 186 -111t77 -211q0 -193 -143.5 -299t-366.5 -106q-221 0 -371 88q-12 6 -12 24z" />
<glyph unicode="4" d="M59 362v113q2 20 9 29q74 115 282.5 412.5t292.5 406.5q12 14 27 14h178q18 0 18 -16v-795h201q16 0 12 -16l-26 -152q-4 -12 -17 -12h-170v-330q0 -16 -14 -16h-209q-16 0 -16 16v330h-551q-17 0 -17 16zM295 526h332v193q0 172 8 319h-2q-27 -43 -170 -256t-168 -256z " />
<glyph unicode="5" d="M125 88v186q0 20 16 11q172 -100 355 -101q123 0 188.5 58.5t65.5 146.5q0 121 -134.5 180.5t-425.5 81.5q-14 0 -14 17l-2 88q6 33 86 299t80 268q4 12 18 12h594q16 0 11 -14l-45 -170q-2 -14 -19 -14h-420q-61 -211 -80 -299q297 -37 451 -136.5t154 -298.5 q0 -193 -141.5 -308t-368.5 -115q-213 0 -359 86q-10 4 -10 22z" />
<glyph unicode="6" d="M80 492q0 143 51 274t135 230.5t193.5 180t221.5 132t222 80.5q4 2 7 1q7 0 8 -10v-184q0 -14 -13 -16q-385 -125 -516 -389q117 70 254 69q176 0 291 -115.5t115 -308.5q0 -190 -128 -323t-356 -133q-225 0 -355 141.5t-130 370.5zM332 494q0 -162 66.5 -244t170.5 -82 q102 0 164 70.5t62 187.5q0 115 -62.5 185.5t-171.5 70.5q-123 0 -217 -76q-12 -53 -12 -112z" />
<glyph unicode="7" d="M104 1153l5 170q2 12 12 12h880q14 0 15 -10v-123q0 -16 -6 -28l-142 -326l-206 -474l-164 -362q-6 -12 -21 -12h-235q-20 0 -13 18l523 1119h-633q-15 0 -15 16z" />
<glyph unicode="8" d="M100 358q0 201 203 310q-182 104 -182 317q0 156 119.5 264.5t322.5 108.5q205 0 315.5 -111.5t110.5 -261.5q0 -201 -174 -305q201 -100 201 -309q0 -180 -132 -285.5t-337 -105.5q-201 0 -324 107t-123 271zM342 377q0 -94 62.5 -152.5t158.5 -58.5q100 0 155.5 59.5 t55.5 143.5q0 131 -102 194q-20 14 -51 15h-127q-33 0 -45 -13q-107 -63 -107 -188zM354 973q0 -123 88 -185q29 -20 54 -20h122q35 0 58 20q80 66 80 183q0 98 -56.5 152.5t-144.5 54.5q-92 0 -146.5 -58.5t-54.5 -146.5z" />
<glyph unicode="9" d="M74 895q0 197 137 330t352 133q209 0 343 -146.5t134 -398.5q0 -178 -68.5 -331.5t-183 -258t-250 -172t-282.5 -96.5h-4q-15 0 -14 14v181q0 14 12 18q362 106 493 373q-106 -72 -245 -72q-184 0 -304 112.5t-120 313.5zM326 911q0 -125 69.5 -189.5t173.5 -64.5 q139 0 215 76q8 33 9 111q0 158 -62.5 245t-173.5 87q-100 0 -165.5 -74t-65.5 -191z" />
<glyph unicode=":" horiz-adv-x="632" d="M168 125q0 63 42 104t107.5 41t107.5 -41t42 -104.5t-40 -104t-110 -40.5q-66 0 -107.5 39.5t-41.5 105.5zM168 797q0 63 42 104t107.5 41t107.5 -42t42 -103q0 -66 -40 -106t-110 -40q-66 0 -107.5 40t-41.5 106z" />
<glyph unicode=";" horiz-adv-x="632" d="M82 -260q86 145 114 273q21 99 21 211q0 33 -2 67q0 14 10 14h201q10 0 16 -16q2 -35 3 -70q0 -289 -156 -483q-4 -12 -23 -12h-172q-15 0 -15 7q0 4 3 9zM168 797q0 63 42 104t107.5 41t107.5 -42t42 -103q0 -66 -40 -106t-110 -40q-66 0 -107.5 40t-41.5 106z" />
<glyph unicode="&#x3c;" horiz-adv-x="1140" d="M131 465v139q0 12 8 19l856 434q16 6 17 -8v-162q0 -14 -15 -19l-665 -331v-5l667 -333q12 -6 13 -19v-157q0 -14 -15 -13l-856 436q-10 9 -10 19z" />
<glyph unicode="=" horiz-adv-x="1140" d="M63 262v146q0 14 15 14h983q16 0 16 -16v-144q0 -16 -18 -16h-979q-17 0 -17 16zM63 664v145q0 14 17 14h983q14 0 14 -14v-147q0 -16 -16 -17h-981q-17 1 -17 19z" />
<glyph unicode="&#x3e;" horiz-adv-x="1140" d="M131 18v162q0 14 10 19l666 331v5l-664 333q-12 4 -12 17v164q0 10 6 10q3 0 6 -2l858 -436q10 -6 11 -19v-135q0 -10 -11 -18l-860 -439q-3 -1 -4 -1q-6 0 -6 9z" />
<glyph unicode="?" horiz-adv-x="919" d="M129 1112v162q0 16 8 20q133 63 305 64q178 0 286 -92t108 -242q0 -76 -45.5 -151.5t-100.5 -125t-100 -103.5t-45 -91q0 -45 37 -109q8 -16 -11 -16h-180q-14 0 -24 10q-53 59 -54 140q0 55 42 113.5t92.5 100.5t92.5 100t42 114q0 63 -50.5 106t-140.5 43 q-129 0 -248 -51q-14 -6 -14 8zM326 123q0 63 41 102t102 39q63 0 103 -40t40 -101q0 -66 -37.5 -104.5t-105.5 -38.5q-63 0 -103 38.5t-40 104.5z" />
<glyph unicode="@" horiz-adv-x="1693" d="M86 422q0 369 240.5 611.5t613.5 242.5q285 0 476.5 -167t191.5 -458q0 -295 -195.5 -467t-478.5 -172q-211 0 -338 98.5t-127 305.5q0 223 157.5 365.5t383.5 142.5q154 0 221 -37q8 -2 6 -15l-137 -690q117 20 222 137t105 326q0 233 -137 359t-370 126 q-274 0 -457.5 -195.5t-183.5 -502.5q0 -395 335 -571q10 -8 11 -23v-162q0 -12 -8 -11q-3 0 -7 1q-248 98 -386 299t-138 457zM670 428q0 -227 217 -246q6 -2 22 -2l119 586q-20 8 -63 8q-131 0 -213 -104.5t-82 -241.5z" />
<glyph unicode="A" horiz-adv-x="1347" d="M59 20l428 1190q12 41 17 113q0 12 12 12h283q12 0 16 -10l473 -1307q2 -5 2 -8q0 -10 -14 -10h-229q-12 0 -19 12l-131 361h-469l-125 -357q-2 -16 -20 -16h-209q-16 0 -16 12q0 3 1 8zM481 573h361q-18 61 -89 271.5t-94 285.5h-2q-14 -61 -42 -149l-71 -221z" />
<glyph unicode="B" horiz-adv-x="1212" d="M156 1317q0 16 12 18q160 4 405 4q500 0 500 -348q0 -106 -55 -182t-148 -109v-4q106 -29 182 -108.5t76 -208.5q0 -190 -153.5 -286.5t-427.5 -96.5q-38 -1 -81 -1q-128 0 -296 5q-14 2 -14 16v1301zM397 195q2 0 56.5 -2.5t107.5 -2.5q311 0 311 201q0 197 -282 197 h-193v-393zM397 786h193q242 0 241 181q0 94 -64.5 136t-195.5 42q-129 0 -174 -4v-355z" />
<glyph unicode="C" horiz-adv-x="1230" d="M109 666q0 297 199.5 494.5t522.5 197.5q195 0 285 -45q10 -6 10 -21v-186q0 -16 -14 -12q-121 51 -274 51q-213 0 -344.5 -127t-131.5 -346q0 -131 44.5 -228.5t116 -147.5t148.5 -72.5t160 -22.5q162 0 295 55q14 6 15 -12v-178q0 -20 -15 -25q-119 -61 -338 -61 q-135 0 -253.5 39.5t-216 118.5t-153.5 215.5t-56 312.5z" />
<glyph unicode="D" horiz-adv-x="1384" d="M154 18v1303q0 12 14 14q184 6 410 6q338 0 517 -177t179 -480q0 -168 -51.5 -295t-127 -199.5t-180 -118.5t-194.5 -60.5t-184 -14.5q-135 0 -369 4q-14 0 -14 18zM401 193q37 -2 144 -3q223 0 349 121t126 367q0 229 -114.5 348t-327.5 119q-139 0 -177 -4v-948z" />
<glyph unicode="E" horiz-adv-x="1101" d="M156 18v1301q0 16 16 16h789q16 0 18 -12l20 -168q4 -18 -12 -18h-584v-355h527q14 0 14 -14v-172q0 -14 -16 -14h-525v-383h619q14 0 12 -17l-28 -166q-2 -16 -21 -16h-813q-16 0 -16 18z" />
<glyph unicode="F" horiz-adv-x="1042" d="M156 16v1305q0 14 14 14h788q16 0 19 -14l18 -166q4 -18 -14 -18h-578v-389h519q16 0 16 -15v-170q0 -14 -16 -14h-519v-533q0 -16 -16 -16h-219q-12 0 -12 16z" />
<glyph unicode="G" horiz-adv-x="1390" d="M109 657q0 319 201.5 510t525.5 191q240 0 368 -74q12 -4 13 -24v-187q0 -20 -17 -12q-158 84 -358 84q-227 0 -353.5 -126t-126.5 -355q0 -203 123 -340.5t351 -137.5q104 0 178 33v297l-228 6q-16 2 -16 19v161q0 12 14 13h461q16 0 17 -17v-606q0 -14 -15 -22 q-203 -90 -440 -90q-344 0 -521 192t-177 485z" />
<glyph unicode="H" horiz-adv-x="1390" d="M156 18v1301q0 16 16 16h213q18 0 18 -14v-539h584v539q0 14 17 14h219q12 0 12 -14v-1305q0 -16 -14 -16h-217q-16 0 -17 16v566h-584v-564q0 -18 -18 -18h-211q-18 0 -18 18z" />
<glyph unicode="I" horiz-adv-x="559" d="M156 18v1303q0 14 16 14h215q16 0 16 -14v-1303q0 -18 -18 -18h-213q-16 0 -16 18z" />
<glyph unicode="J" horiz-adv-x="798" d="M-2 -57v180q0 18 16 12q96 -45 193 -45q98 0 143 53.5t45 188.5v989q0 14 17 14h217q14 0 14 -12v-995q0 -451 -410 -451q-141 0 -223 41q-12 9 -12 25z" />
<glyph unicode="K" horiz-adv-x="1286" d="M156 18v1303q0 14 14 14h217q16 0 16 -14v-545h125q20 0 35 21l174 256q125 186 187 270q8 12 24 12h232q23 0 10 -20q-240 -354 -449 -613q-8 -10 0 -18q100 -121 514 -661q4 -5 5 -11q0 -3 -2 -5q-3 -7 -13 -7h-252q-23 0 -32 16l-406 537q-16 23 -39 22h-113v-557 q0 -18 -18 -18h-211q-18 0 -18 18z" />
<glyph unicode="L" horiz-adv-x="1062" d="M156 20v1299q0 16 16 16h217q14 0 14 -14v-1122h601q16 0 12 -17l-31 -168q-4 -14 -20 -14h-789q-20 0 -20 20z" />
<glyph unicode="M" horiz-adv-x="1798" d="M125 16l141 1309q2 10 17 10h321q16 0 19 -12q227 -729 280 -973h2q16 70 73 258l125 415l91 300q2 12 16 12h310q12 0 14 -10l137 -1309q2 -16 -14 -16h-240q-14 0 -16 14q-70 999 -72 1135h-2q-25 -104 -148.5 -535.5l-168.5 -599.5q-6 -14 -21 -14h-194q-18 0 -23 14 q-250 879 -311 1139h-4q-6 -217 -95 -1139q-2 -14 -16 -14h-205q-18 0 -16 16z" />
<glyph unicode="N" horiz-adv-x="1400" d="M156 18v1305q0 12 14 12h276q16 0 25 -12q504 -920 543 -1012h4q-6 166 -6 344v666q0 14 16 14h199q16 0 16 -16v-1301q0 -18 -18 -18h-269q-14 0 -26 14q-55 121 -281.5 544t-267.5 519h-2q8 -104 8 -403v-658q0 -16 -14 -16h-199q-18 0 -18 18z" />
<glyph unicode="O" horiz-adv-x="1482" d="M106 672q0 307 177.5 496.5t459.5 189.5q285 0 457 -194.5t174 -487.5q0 -324 -175 -510t-458 -186q-293 0 -464 187.5t-171 504.5zM362 670q0 -217 103.5 -350.5t284.5 -133.5q174 0 272 129t98 355q0 217 -103.5 350t-277.5 133q-168 0 -272.5 -128t-104.5 -355z" />
<glyph unicode="P" horiz-adv-x="1177" d="M156 14v1307q0 14 12 14q156 4 387 4q283 0 412 -123.5t131 -320.5q0 -231 -163 -349t-407 -118h-127v-412q0 -16 -14 -16h-217q-14 0 -14 14zM401 627q33 -4 134 -4q137 0 227 63.5t90 204.5q0 123 -77 188.5t-220 65.5q-121 0 -154 -4v-514z" />
<glyph unicode="Q" horiz-adv-x="1484" d="M106 666q0 317 178.5 504.5t463.5 187.5q279 0 452.5 -191.5t173.5 -486.5q0 -233 -85 -384t-204 -218q250 -199 414 -307q3 -3 3 -13q0 -18 -5 -20l-264 -23q-5 -1 -10 -1q-10 0 -17 5q-109 63 -356 275q-31 -14 -100 -14q-291 0 -467.5 189.5t-176.5 496.5zM362 672 q0 -225 105.5 -355.5t282.5 -130.5h5q166 0 265 125q100 127 100 357q0 219 -102.5 352t-280.5 133q-174 0 -274.5 -131t-100.5 -350z" />
<glyph unicode="R" horiz-adv-x="1257" d="M156 16v1303q0 16 12 16q164 6 403 6q244 0 379 -98t135 -287q0 -268 -280 -362q336 -428 430 -571q6 -9 6 -15q0 -8 -12 -8h-256q-18 0 -29 10q-82 111 -334 482q-20 37 -65 36h-148v-512q0 -16 -14 -16h-211q-16 0 -16 16zM397 725h162q141 0 211 58.5t70 158.5 t-74 152.5t-207 52.5t-162 -4v-418z" />
<glyph unicode="S" horiz-adv-x="1044" d="M68 115v194q0 8 5 11.5t11 -1.5q188 -133 412 -133q113 0 166 43t53 109q0 68 -50.5 112t-211.5 113q-211 90 -293 181.5t-82 236.5q0 158 125 266.5t346 108.5q207 0 336 -74q12 -8 12 -25v-186q0 -18 -18 -8q-156 94 -334 94q-123 0 -172 -48t-49 -105q0 -59 49 -106.5 t194 -109.5q233 -96 316.5 -191t83.5 -235q0 -176 -129 -279t-353 -103q-252 0 -403 104q-14 11 -14 31z" />
<glyph unicode="T" horiz-adv-x="1140" d="M12 1155l27 166q2 14 18 14h1033q16 0 18 -16l18 -162q2 -20 -14 -20h-428v-1119q0 -18 -16 -18h-211h-4q-17 0 -17 18v1119h-411q-17 0 -13 18z" />
<glyph unicode="U" horiz-adv-x="1388" d="M156 487v832q0 16 16 16h215q16 0 16 -14v-829q0 -145 75 -226.5t220 -81.5q287 0 287 316v819q0 16 16 16h213q18 0 19 -16v-821q0 -266 -148.5 -392t-390.5 -126q-248 0 -393 127.5t-145 379.5z" />
<glyph unicode="V" horiz-adv-x="1318" d="M39 1317q-2 5 -2 9q0 9 14 9h236q14 0 18 -12q330 -905 373 -1073h4q78 272 348 1071q4 14 19 14h227q12 0 12 -9q0 -4 -2 -9l-477 -1305q-4 -12 -18 -12h-240q-16 0 -21 12z" />
<glyph unicode="W" horiz-adv-x="1853" d="M39 1319q-2 16 14 16h230q18 0 20 -12q223 -891 250 -1057h2q55 260 254 1055q4 14 22 14h230q16 0 20 -14l242 -1055h2l240 1055q6 14 20 14h215q16 0 15 -18l-355 -1305q-4 -12 -20 -12h-230q-18 0 -20 12q-242 1020 -254 1078h-2q-37 -178 -275 -1072q-4 -18 -20 -18 h-223q-16 0 -25 18z" />
<glyph unicode="X" horiz-adv-x="1251" d="M35 20l420 652l-404 647q-10 16 8 16h250q20 0 27 -14l295 -506h2l291 506q8 14 26 14h226q20 0 10 -22l-398 -627l426 -666q5 -6 5 -10q0 -7 -13 -10h-252q-23 0 -30 16l-312 512h-2l-301 -512q-10 -16 -26 -16h-240q-14 0 -14 8q0 4 6 12z" />
<glyph unicode="Y" horiz-adv-x="1222" d="M31 1317q-3 6 -3 10q0 9 15 8h248q12 0 18 -10q256 -498 316 -631l305 631q2 10 16 10h238q11 0 11 -6q0 -3 -3 -8l-442 -791q-16 -27 -17 -63v-449q0 -18 -18 -18h-211q-18 0 -19 18v459q0 33 -14 60z" />
<glyph unicode="Z" horiz-adv-x="1142" d="M37 16v113q0 14 8 25l707 983h-686q-16 0 -15 16l29 168q4 14 18 14h953q12 0 12 -12v-123q0 -16 -10 -31l-688 -970h743q14 0 14 -11q0 -3 -2 -8l-33 -164q-4 -16 -18 -16h-1014q-18 0 -18 16z" />
<glyph unicode="[" horiz-adv-x="655" d="M133 -336v1866q0 16 19 16h430q8 0 8 -8v-121q0 -12 -8 -12l-258 -4v-1604l260 -8q8 0 8 -12v-121q0 -10 -12 -10h-428q-19 0 -19 18z" />
<glyph unicode="\" horiz-adv-x="747" d="M76 1427q-4 14 10 15h168q12 0 16 -12l400 -1500q2 -5 1 -8q0 -10 -14 -10h-170q-14 0 -18 14z" />
<glyph unicode="]" horiz-adv-x="669" d="M86 1415v119q0 12 10 12h430q16 0 17 -18v-1866q0 -16 -17 -16h-430q-8 0 -8 8v121q0 12 8 12l258 4v1604l-260 8q-8 0 -8 12z" />
<glyph unicode="^" horiz-adv-x="1056" d="M76 494l342 759q8 12 14 13h186q12 0 19 -13l350 -757q2 -6 2 -10q0 -9 -10 -9h-164q-18 0 -22 12l-265 605h-2l-258 -602q-5 -15 -15 -15h-3h-162q-14 0 -14 9q0 4 2 8z" />
<glyph unicode="_" horiz-adv-x="1058" d="M0 -152h1059v-100h-1059v100z" />
<glyph unicode="`" horiz-adv-x="800" d="M115 1413q-4 7 -4 11q0 8 12 8h235q14 0 23 -11l170 -301q3 -5 2 -8q0 -8 -12 -8h-189q-12 0 -20 12z" />
<glyph unicode="a" horiz-adv-x="1038" d="M63 307q0 327 524 327q37 0 77 -1v33q0 20 -7.5 41.5t-28 48t-64.5 43t-105 16.5q-145 0 -281 -67q-16 -4 -16 12v160q0 16 12 20q152 76 332 76q197 0 297 -108.5t100 -286.5v-406q0 -63 6 -127q0 -8 -6 -10q-209 -98 -428 -98q-182 0 -297 81.5t-115 245.5zM305 311 q0 -63 52.5 -105t156.5 -42q94 0 150 20v285q-33 1 -63 1q-146 0 -214 -33q-82 -40 -82 -126z" />
<glyph unicode="b" horiz-adv-x="1159" d="M135 45v1393q0 14 15 14h215q18 0 18 -14v-467q115 45 225 45q209 0 333 -133t124 -336q0 -258 -175 -411.5t-429 -153.5q-166 0 -314 43q-12 6 -12 20zM383 182q39 -12 111 -12q125 0 221 91t96 257q0 145 -71.5 222t-192.5 77q-100 0 -164 -35v-600z" />
<glyph unicode="c" horiz-adv-x="915" d="M88 494q0 229 149.5 375.5t389.5 146.5q133 0 207 -37q10 -4 10 -21l-2 -165q0 -18 -15 -11q-84 37 -184 37q-137 0 -219 -87t-82 -232q0 -160 85 -239t210 -79q109 0 190 37q14 2 15 -10v-166q0 -14 -11 -18q-92 -45 -245 -45q-242 0 -370 143.5t-128 370.5z" />
<glyph unicode="d" horiz-adv-x="1153" d="M88 487q0 227 155.5 378t411.5 151q68 0 117 -15v437q0 14 12 14h224q10 0 10 -12v-1209q0 -5 3 -51t3 -83q0 -10 -10 -17q-205 -100 -410 -100q-236 0 -376 129.5t-140 377.5zM342 500q0 -164 82 -244t209 -80q78 0 139 21v610q-47 18 -121 18q-141 0 -225 -85.5 t-84 -239.5z" />
<glyph unicode="e" horiz-adv-x="1067" d="M86 492q0 227 129 375.5t352 148.5q109 0 193 -38t132 -100.5t72.5 -134t24.5 -147.5q0 -121 -18 -135q-29 -12 -215 -12h-418q4 -123 81 -195t226 -72q139 0 256 51q12 4 12 -10v-164q0 -16 -12 -22q-106 -53 -307 -57q-135 0 -236.5 43t-159 116.5t-85 163t-27.5 189.5 zM338 606h328q86 0 90 17v22q0 66 -47 130.5t-152 64.5q-96 0 -151.5 -65t-67.5 -169z" />
<glyph unicode="f" horiz-adv-x="577" d="M18 829v154q0 12 13 12h125v35q0 199 95 319.5t269 120.5q72 0 127 -18q10 -6 10 -20v-168q0 -14 -14 -13q-37 14 -82 15q-160 0 -160 -222v-49h183q14 0 14 -14v-152q0 -16 -14 -16l-183 -6v-791q0 -16 -16 -16h-213q-16 0 -16 16v793l-125 4q-13 2 -13 16z" />
<glyph unicode="g" horiz-adv-x="1071" d="M57 -150q0 113 187 256q-47 70 -47 150q0 74 39 135q-141 88 -142 281q0 150 111.5 246t300.5 96q96 0 168 -13q25 -6 57 -6h283q12 0 12 -14v-152q0 -12 -14 -12l-158 6q47 -53 47 -157q0 -158 -108.5 -244t-282.5 -86q-47 0 -80 8q-18 -29 -18 -76q0 -49 32 -82 q37 4 105 4q240 0 370 -68.5t130 -234.5q0 -158 -139.5 -263t-374.5 -105q-219 0 -348.5 92t-129.5 239zM281 -143q0 -68 68.5 -115t195.5 -47q135 0 200.5 48t65.5 114q0 80 -76 111.5t-219 31.5q-86 0 -135 -8q-35 -18 -67.5 -56t-32.5 -79zM326 676q0 -82 47 -131 t129 -49q78 0 124 48t46 130q0 86 -43 133t-127 47q-78 0 -127 -48t-49 -130z" />
<glyph unicode="h" horiz-adv-x="1144" d="M135 1438q0 14 15 14h219q12 0 12 -14v-516q131 94 287 94q145 0 243.5 -97.5t98.5 -320.5v-582q0 -16 -17 -16h-215q-16 0 -16 16v590q0 207 -176 207q-106 0 -205 -78v-721q0 -14 -14 -14h-217q-14 0 -15 16v1422z" />
<glyph unicode="i" horiz-adv-x="518" d="M121 1257q0 55 39 91t100.5 36t98 -34.5t36.5 -92t-38 -92.5t-99 -35t-99 35t-38 92zM135 18v961q0 16 15 16h217q16 0 16 -16v-963q0 -16 -16 -16h-213q-19 0 -19 18z" />
<glyph unicode="j" horiz-adv-x="516" d="M-57 -287q0 16 14 17q9 0 17 -1q91 0 124 43q37 46 37 177v1030q0 16 17 16h215q16 0 16 -16v-883q0 -205 -21.5 -303t-72.5 -162q-84 -100 -246 -100q-63 0 -84 6q-16 6 -16 21v155zM123 1257q0 55 39 91t100.5 36t98 -34.5t36.5 -92t-37.5 -92.5t-99 -35t-99.5 35 t-38 92z" />
<glyph unicode="k" horiz-adv-x="1079" d="M135 18v1420q0 14 17 14h215q14 0 14 -14v-836h80q23 0 35 12l252 369q8 12 22 12h223q23 0 11 -20q-57 -92 -334 -440q-6 -10 0 -19l409 -498q2 -4 2 -8t-3 -7t-9 -3h-274q-16 0 -25 12l-283 379q-14 16 -34 17h-72v-390q0 -18 -14 -18h-215q-17 0 -17 18z" />
<glyph unicode="l" horiz-adv-x="550" d="M135 1436q0 16 17 16h213q16 0 16 -16v-1192q0 -78 63 -78q14 0 48 4q4 2 7 -1t3 -9v-137q0 -18 -15 -23q-45 -20 -129 -20q-109 0 -166 56t-57 195v1205z" />
<glyph unicode="m" horiz-adv-x="1755" d="M125 979q0 16 16 16h189q10 0 20 -12q2 -4 17 -86q147 119 303 119q178 0 262 -142q174 141 352 142q59 0 114.5 -19.5t106.5 -62.5t82 -124t31 -192v-602q0 -16 -19 -16h-210q-16 0 -17 18v592q0 203 -168 203q-106 0 -213 -90q8 -49 8 -107v-598q0 -18 -14 -18h-213 q-18 0 -18 16v594q0 203 -168 203q-98 0 -205 -86v-711q0 -16 -14 -16h-217q-14 0 -15 18v758q0 105 -10 203z" />
<glyph unicode="n" horiz-adv-x="1144" d="M125 979q0 16 14 16h187q18 0 24 -14q10 -31 15 -82q135 117 309 117q63 0 119.5 -19.5t106.5 -63.5t80 -129t30 -204v-584q0 -16 -17 -16h-213q-18 0 -18 18v584q0 211 -176 211q-106 0 -205 -88v-709q0 -16 -16 -16h-215q-14 0 -15 18v742q0 117 -10 219z" />
<glyph unicode="o" horiz-adv-x="1175" d="M88 498q0 227 139.5 372.5t366.5 145.5q231 0 362 -145.5t131 -368.5q0 -240 -138 -381t-361 -141q-248 0 -374 151.5t-126 366.5zM340 502q0 -156 66.5 -248t187.5 -92q104 0 173 82t69 250q0 154 -63.5 247t-190.5 93q-109 0 -175.5 -89t-66.5 -243z" />
<glyph unicode="p" horiz-adv-x="1153" d="M127 915q0 10 8 13q264 88 434 88q242 0 369 -136.5t127 -347.5q0 -256 -178 -403t-416 -149q-45 0 -90 8v-402q0 -14 -14 -16l-217 -21h-4q-11 0 -11 13v1235q0 65 -8 118zM381 182q41 -12 98 -12q141 0 236.5 91t95.5 259q0 145 -73.5 221t-194.5 76q-76 0 -162 -22 v-613z" />
<glyph unicode="q" horiz-adv-x="1155" d="M88 479q0 233 162 385t436 152q178 0 336 -60q6 -4 6 -14q-8 -47 -8 -131v-1225q0 -14 -14 -16l-222 -21q-12 0 -12 17v444q-84 -31 -190 -30q-219 0 -356.5 131.5t-137.5 367.5zM342 492q0 -160 86 -238t205 -78q84 0 139 27v606q-49 16 -115 16q-141 0 -228 -87.5 t-87 -245.5z" />
<glyph unicode="r" horiz-adv-x="737" d="M125 986q0 9 12 9h193q16 0 22 -16q12 -43 21 -125q55 76 140 119t163 43q18 0 26 -2q12 -2 13 -21v-190q0 -14 -17 -15q-10 0 -19 1q-78 0 -156 -30q-87 -34 -140 -91v-652q0 -16 -16 -16h-215q-16 0 -17 16v691q0 60 -5 152.5t-5 126.5z" />
<glyph unicode="s" horiz-adv-x="831" d="M63 80v188q0 8 5.5 11.5t9.5 -0.5q174 -111 332 -111q66 0 96.5 26.5t30.5 65.5q0 41 -38 69.5t-147 73.5q-160 66 -222 134.5t-62 181.5q0 129 99 213t275 84q166 0 271 -60q12 -10 12 -26v-168q0 -23 -18 -12q-139 78 -285 77q-127 0 -127 -86q0 -39 33.5 -65.5 t146.5 -71.5q164 -68 232.5 -135.5t68.5 -173.5q0 -150 -104.5 -232.5t-278.5 -82.5q-188 0 -317 79q-13 7 -13 21z" />
<glyph unicode="t" horiz-adv-x="665" d="M14 831v148q0 16 17 16h125q4 160 22 256q4 14 17 17l204 39q4 1 7 1q10 0 10 -12q-8 -88 -13 -301h207q14 0 15 -14v-152q0 -14 -13 -16l-211 -4v-502q0 -72 27 -104.5t90 -32.5q37 0 88 14q6 2 9 -1t3 -11v-135q0 -18 -12 -23q-72 -35 -184 -34q-266 0 -266 284v545 l-127 4q-15 2 -15 18z" />
<glyph unicode="u" horiz-adv-x="1132" d="M135 356v623q0 16 17 16h215q14 0 14 -14v-588q0 -213 172 -213q115 0 197 82v717q0 16 16 16h215q16 0 16 -14v-756q0 -34 5.5 -105.5t5.5 -108.5q0 -11 -15 -11h-190q-16 0 -21 12q-4 14 -10 74q-129 -106 -299 -106q-147 0 -242.5 86.5t-95.5 289.5z" />
<glyph unicode="v" horiz-adv-x="1021" d="M23 979q-2 4 -2 8q0 9 12 8h233q16 0 19 -14q211 -672 237 -791h4q33 133 246 793q4 12 19 12h204q14 0 14 -9q0 -3 -1 -7l-353 -965q-6 -14 -22 -14h-246q-16 0 -20 12z" />
<glyph unicode="w" horiz-adv-x="1525" d="M18 979q-2 4 -1 7q0 9 14 9h219q16 0 18 -12q137 -524 183 -754h4q51 215 194 750q2 16 19 16h219q14 0 16 -12q137 -537 180 -760h4q68 330 191 758q2 14 16 14h203q14 0 12 -14l-297 -965q-6 -16 -22 -16h-229q-16 0 -23 16q-129 516 -174 725h-2q-29 -147 -199 -725 q-6 -16 -22 -16h-228q-20 0 -26 18z" />
<glyph unicode="x" horiz-adv-x="997" d="M17 6q-1 3 -1 5q0 4 2 7l314 478l-307 481q-8 18 12 18h244q18 0 26 -16l195 -350h4l205 356q6 10 18 10h217q20 0 10 -18q-205 -322 -309 -469l334 -492q4 -6 4 -9q0 -7 -14 -7h-254q-18 0 -25 16l-211 355h-4l-205 -359q-4 -12 -22 -12h-221q-9 0 -12 6z" />
<glyph unicode="y" horiz-adv-x="997" d="M9 985q0 10 14 10h239q12 0 19 -14q207 -565 245 -694h2q104 274 220 694q6 14 20 14h203q15 0 15 -12q0 -3 -1 -6q-98 -414 -336 -916q-174 -356 -297 -503q-12 -14 -33 -15h-233q-10 0 -13 6.5t5 14.5q72 86 170 234.5t139 234.5q10 23 6 35q-39 80 -184 427 q-31 74 -88 194.5t-84.5 189t-27.5 106.5z" />
<glyph unicode="z" horiz-adv-x="882" d="M35 12v107q0 12 6 20l491 662h-198h-285q-16 0 -16 11q0 3 2 7l28 160q4 16 19 16h727q12 0 12 -14v-107q0 -16 -10 -28q-283 -410 -475 -653h235h283q14 0 12 -17l-32 -162q-2 -14 -17 -14h-770q-12 0 -12 12z" />
<glyph unicode="{" horiz-adv-x="792" d="M57 524v160q0 10 11 10q135 0 188 42t57 141q0 9 1 21q0 49 -7 142q-8 117 -8 158q0 53 18.5 106.5t61.5 109.5t129 99t205 62h4q11 0 10 -10l2 -152q0 -12 -12 -14q-211 -43 -211 -217q0 -47 6 -157t6 -153q0 -215 -215 -264v-8q217 -43 221 -270q0 -49 -9 -164t-9 -164 q0 -82 48 -133t167 -74q10 -4 10 -14v-156q0 -6 -3 -9q-2 -2 -4 -2q-1 0 -3 1q-203 20 -311.5 117.5t-108.5 251.5q0 57 9 163.5t9 159.5q0 102 -55 153.5t-196 51.5q-11 0 -11 12z" />
<glyph unicode="|" horiz-adv-x="483" d="M135 -401v2007h211v-2007h-211z" />
<glyph unicode="}" horiz-adv-x="792" d="M59 1411v154q0 12 11 12q203 -20 312.5 -118.5t109.5 -252.5q0 -57 -10.5 -157.5t-10.5 -153.5q0 -102 55.5 -152.5t196.5 -50.5q10 0 10 -14v-158q0 -10 -10 -10q-137 0 -189.5 -42t-56.5 -142q0 -43 7.5 -166t7.5 -168q0 -53 -18.5 -106.5t-61.5 -110t-129 -99.5 t-205 -61h-4q-11 0 -11 10v154q0 10 11 12q211 43 211 217q0 47 -6.5 163t-6.5 161q0 211 215 264v6q-219 47 -219 270v22q0 52 7 140q9 109 10 154q0 82 -48.5 133t-166.5 74q-11 4 -11 16z" />
<glyph unicode="~" horiz-adv-x="1150" d="M80 401q0 14 -1 28q0 165 68 247q74 88 197 88q68 0 122 -24.5t146 -90.5q80 -57 120 -78.5t79 -21.5q51 0 73 40q20 36 19 130v18q0 14 15 15h141q14 0 14 -13q2 -28 2 -54q0 -156 -63 -228q-74 -84 -195 -84q-125 0 -270 108l-50 37l-43 33q-13 10 -33 21.5t-34 15.5 t-31 4q-107 0 -106 -179v-14q0 -14 -12 -14h-146q-12 2 -12 16z" />
<glyph unicode="&#xa1;" horiz-adv-x="577" d="M92 808.5q0 63.5 40 100.5t108 37q66 0 105.5 -37t39.5 -100q0 -61 -41 -101t-104 -40q-66 0 -107 38.5t-41 102zM100 -240q0 113 16.5 371t24.5 336q4 12 17 12h161q12 0 15 -12q39 -545 39 -700v-148q0 -14 -13 -22q-43 -25 -122 -25q-84 0 -125 18q-12 8 -13 23v147z " />
<glyph unicode="&#xa2;" d="M162 670q0 193 115.5 319.5t289.5 157.5v176q0 10 13 10h165q14 0 15 -10v-166q102 0 176 -39q10 -8 10 -20v-172q0 -16 -18 -11q-96 43 -221 43q-135 0 -217 -75.5t-82 -202.5q0 -141 91 -212t214 -71q127 0 227 45q12 4 12 -10v-166q0 -14 -12 -20q-70 -41 -180 -45 v-181q0 -10 -12 -10h-168q-14 0 -15 13v180q-180 23 -291.5 150t-111.5 317z" />
<glyph unicode="&#xa3;" d="M78 10v142q0 10 10 14q111 35 163 132t52 222v53h-176q-12 0 -12 15v145q0 12 14 12h162q0 25 -1 70t-1 57q0 221 120.5 353.5t325.5 132.5q135 0 209 -39q18 -6 19 -27v-164q0 -18 -17 -12q-88 39 -182 39q-227 0 -227 -291v-119h292q12 0 13 -12v-147q0 -12 -13 -13 h-288q-4 -252 -148 -372h621q16 0 14 -15l-31 -174q-2 -12 -16 -12h-893q-10 0 -10 10z" />
<glyph unicode="&#xa4;" d="M76 1030q-5 5 -5 9.5t5 9.5l96 102q5 4 10 4t8 -6l150 -145q92 66 213 65.5t217 -65.5l150 141q10 10 18 0l96 -96q4 -4 4 -8q0 -5 -6 -11l-147 -145q66 -92 65 -217q0 -123 -65 -217l145 -142q5 -5 5 -9.5t-5 -8.5l-96 -94q-5 -6 -10 -6l-11 8l-137 141 q-82 -68 -221 -68q-133 0 -223 64l-131 -139q-8 -6 -14 -6q-5 0 -9 4l-94 92q-10 8 -2 20l141 142q-61 94 -61 221q0 121 63 215zM344 670q0 -123 62.5 -182.5t148.5 -59.5q88 0 149.5 56.5t61.5 185.5q0 102 -56.5 171.5t-158.5 69.5q-94 0 -150.5 -66t-56.5 -175z" />
<glyph unicode="&#xa5;" d="M39 1323q-3 4 -3 7q0 5 11 5h244q14 0 18 -8q215 -422 250 -522h4q37 102 242 518q6 12 18 12h236q10 0 10 -6q0 -3 -2 -6l-346 -586h223q10 0 10 -12v-123q0 -12 -12 -12h-272v-125h272q12 0 12 -10v-125q0 -14 -14 -15h-270v-301q-2 -14 -17 -14h-209q-16 2 -16 16v299 h-264q-14 0 -14 15v121q0 14 14 14h264v125h-264q-14 0 -14 16v117q0 14 14 14h227z" />
<glyph unicode="&#xa6;" horiz-adv-x="483" d="M135 -401v802h211v-802h-211zM137 803v803h209v-803h-209z" />
<glyph unicode="&#xa7;" horiz-adv-x="1019" d="M88 799q0 219 153.5 389t376.5 170q186 0 269 -70q10 -10 10 -18v-158q0 -8 -7 -11t-11 1q-123 92 -263 92q-61 0 -97 -24.5t-36 -61.5q0 -41 36 -92t186 -199q156 -156 229.5 -275.5t73.5 -281.5q0 -227 -154 -396t-375 -169q-106 0 -194 30.5t-127 67.5q-10 6 -11 23 v164q0 18 15 8q158 -115 319 -115q106 0 107 68q0 55 -39 110t-189 217q-152 166 -212 281t-60 250zM305 647q53 -94 213 -266q133 -145 182 -237q38 -71 38 -139q0 -20 -3 -40q104 100 105 250q0 106 -52.5 205.5t-199.5 249.5q-164 166 -211 244.5t-51 168.5 q-76 -102 -76 -232q0 -106 55 -204z" />
<glyph unicode="&#xa8;" horiz-adv-x="800" d="M76 1257q0 55 35.5 91t91.5 36q53 0 87 -34.5t34 -92t-35 -91t-90.5 -33.5t-89 33.5t-33.5 90.5zM475 1257q0 55 36 91t89 36q55 0 88 -34.5t33 -92t-35 -91t-88 -33.5q-55 0 -89 33.5t-34 90.5z" />
<glyph unicode="&#xa9;" horiz-adv-x="1554" d="M100 672q0 289 194.5 481.5t481.5 192.5t480.5 -192.5t193.5 -481.5q0 -295 -193.5 -487.5t-480.5 -192.5t-481.5 193.5t-194.5 486.5zM231 672q0 -244 157 -402.5t388 -158.5q248 0 396.5 156.5t148.5 404.5q0 242 -156.5 399.5t-388.5 157.5q-242 0 -393.5 -157.5 t-151.5 -399.5zM434 668q0 162 114 269t290 107q121 0 186 -34q10 -6 10 -21l-2 -119q0 -10 -14 -8q-66 33 -162 33q-104 0 -168.5 -61.5t-64.5 -157.5q0 -104 67.5 -163.5t161.5 -59.5q100 0 178 39q10 6 10 -7v-118q2 -8 -10 -17q-76 -45 -209 -45q-176 0 -281.5 105.5 t-105.5 257.5z" />
<glyph unicode="&#xaa;" horiz-adv-x="735" d="M51 797q0 195 416 211v12q0 92 -139 92q-104 0 -197 -39q-12 -4 -12 10v115q0 6 6 10q102 45 227 45q139 0 217 -72.5t78 -191.5v-340q0 -10 -12 -18q-160 -47 -283 -47q-131 0 -216 52t-85 161zM229 801q0 -84 136 -84q66 0 102 12v164q-238 -6 -238 -92z" />
<glyph unicode="&#xab;" horiz-adv-x="1378" d="M160 436v125q0 10 12 17l465 362q6 3 10 3q9 0 8 -15v-172q0 -16 -12 -25l-285 -233l287 -236q10 -10 10 -24v-177q0 -15 -9 -15q-4 0 -11 3l-465 369q-10 6 -10 18zM702 436v125q0 8 11 12l465 367q6 3 9 3q9 0 9 -15v-172q0 -14 -12 -25l-285 -233l285 -236 q12 -8 12 -24v-177q0 -15 -9 -15q-4 0 -9 3l-465 369q-11 4 -11 18z" />
<glyph unicode="&#xac;" horiz-adv-x="1140" d="M61 662v149q0 12 13 12h991q12 0 12 -14v-573q0 -14 -10 -15h-160q-12 0 -12 15v411h-821q-13 1 -13 15z" />
<glyph unicode="&#xad;" horiz-adv-x="724" d="M109 426v178q0 14 14 14h481q12 0 12 -14v-178q0 -14 -12 -14h-481q-14 0 -14 14z" />
<glyph unicode="&#xae;" horiz-adv-x="411" d="M29 1116q0 86 59 145.5t152 59.5q86 0 145 -59.5t59 -145.5q0 -88 -58 -147.5t-146 -59.5q-92 0 -151.5 59.5t-59.5 147.5zM80 1114q0 -68 45 -115t114.5 -47t111.5 45t42 117t-44 119t-116 47q-68 0 -110.5 -46t-42.5 -120zM156 1024v190q0 6 6 7h71q90 0 91 -62 q0 -39 -45 -55q4 -8 28 -40l31 -40q1 -1 1 -2t-1 -2q-2 -2 -4 -2h-47q-6 0 -11 4l-43 63q-4 6 -8 7h-18v-68q0 -6 -4 -6h-41q-6 0 -6 6zM207 1128h24q39 0 39 27q0 25 -39 25h-24v-52z" />
<glyph unicode="&#xaf;" horiz-adv-x="800" d="M98 1194v145q0 14 17 15h577q12 0 13 -15v-145q0 -14 -15 -14h-577q-15 0 -15 14z" />
<glyph unicode="&#xb0;" horiz-adv-x="591" d="M37 1024q0 111 73.5 186.5t188.5 75.5q113 0 184.5 -74.5t71.5 -187.5q0 -115 -71.5 -190.5t-184.5 -75.5q-115 0 -188.5 76.5t-73.5 189.5zM168 1024q0 -61 37 -101t94 -40q55 0 92 40t37 101q0 59 -38 99t-91 40q-57 0 -94 -40t-37 -99z" />
<glyph unicode="&#xb1;" horiz-adv-x="1140" d="M61 16v146q0 14 17 14h985q16 0 16 -16v-142q0 -18 -18 -18h-979q-21 0 -21 16zM61 709v149q0 14 15 14h403v398q0 14 15 14h155q14 0 15 -14v-398h401q14 0 14 -16v-145q0 -16 -14 -17h-401v-401q0 -14 -15 -14h-157q-12 0 -13 14v401h-403q-15 1 -15 15z" />
<glyph unicode="&#xb2;" horiz-adv-x="694" d="M53 938v86q0 10 4 14l64 44l73 51q24 16 65.5 48.5t64 56.5l48 53.5t37 59t11.5 58.5q0 55 -37 91t-111 36q-88 0 -196 -57q-16 -10 -17 6v119q0 14 13 18q106 66 245 66q137 0 210 -70t73 -178q0 -102 -68.5 -184t-199.5 -181h311q8 0 8 -10l-26 -127q-2 -10 -15 -10 h-547q-10 0 -10 10z" />
<glyph unicode="&#xb3;" horiz-adv-x="688" d="M63 983v123q0 10 13 6q106 -59 221 -59q72 0 107.5 27.5t35.5 66.5q0 94 -161 94h-72q-10 0 -10 10v105q0 10 10 10h74q131 0 131 88q0 41 -34 66.5t-104 25.5q-98 0 -188 -49q-12 -4 -12 6v113q0 10 6 12q106 59 235 60q127 0 197 -55.5t70 -141.5q0 -121 -127 -166v-2 q166 -39 166 -178q0 -115 -88.5 -173.5t-227.5 -58.5q-135 0 -231 52q-11 6 -11 18z" />
<glyph unicode="&#xb4;" horiz-adv-x="800" d="M279 1118l157 297q8 16 25 17h233q18 0 11 -19l-203 -299q-10 -10 -29 -10h-186q-16 0 -8 14z" />
<glyph unicode="&#xb5;" horiz-adv-x="1173" d="M135 -426v1407q0 14 17 14h217q14 0 14 -14v-645q0 -72 37 -116t106 -44q96 0 162 88t66 266v453q0 12 12 12h223q12 0 12 -12v-721q2 -102 76 -102q25 0 49 4q6 2 8.5 0t2.5 -10v-134q0 -12 -9 -16q-49 -25 -129 -24q-182 0 -208 172q0 2 -1.5 14t-1.5 14 q-84 -201 -272 -200q-102 0 -149 57q8 -106 8 -443q0 -16 -15 -18l-76 -7q-54 -5 -90 -9t-42 -4q-17 0 -17 18z" />
<glyph unicode="&#xb6;" horiz-adv-x="1011" d="M82 627q0 219 147.5 367.5t421.5 183.5q8 100 37 159q6 12 19 13h137q11 0 10 -9q0 -51 -17.5 -129.5t-17.5 -105.5q0 -195 4 -508t4 -473q0 -346 -88 -469q-10 -10 -22 -10h-133q-14 0 -11 16q84 145 84 377v33q-111 8 -207 40.5t-182 93t-136 169.5t-50 252z" />
<glyph unicode="&#xb7;" horiz-adv-x="598" d="M152 524q0 66 42 108t107.5 42t107.5 -42t42 -108q0 -68 -41 -108.5t-109 -40.5t-108.5 40.5t-40.5 108.5z" />
<glyph unicode="&#xb8;" horiz-adv-x="800" d="M199 -326q0 16 14 11q63 -27 131 -27q86 0 86 61q0 72 -190 99q-4 4 -5.5 24.5t3.5 26.5l112 143h150l-72 -96q176 -49 176 -192q0 -86 -68.5 -141.5t-177.5 -55.5q-94 0 -147 29q-12 4 -12 22v96z" />
<glyph unicode="&#xb9;" horiz-adv-x="559" d="M78 1487v110q0 10 8 11q82 20 188 65q4 4 17 4h121q8 0 8 -10v-727q0 -12 -12 -12h-168q-12 0 -13 12v580q-63 -25 -139 -41q-10 -4 -10 8z" />
<glyph unicode="&#xba;" horiz-adv-x="837" d="M61 918q0 150 97.5 242.5t265.5 92.5t260 -93t92 -238q0 -158 -96 -248t-260 -90q-184 0 -271.5 96.5t-87.5 237.5zM260 922q0 -86 43 -141.5t121 -55.5q70 0 114 49t44 146q0 84 -39 140t-123 56q-74 0 -117 -51t-43 -143z" />
<glyph unicode="&#xbb;" horiz-adv-x="1378" d="M180 59v172q0 16 13 25l284 236l-284 233q-12 12 -13 25v178q3 15 11 14q4 0 10 -4l465 -369q8 -6 8 -18v-123q0 -10 -10 -14l-465 -365q-6 -3 -11 -3q-8 -1 -8 13zM721 59v172q0 16 12 25l285 236l-283 233q-14 12 -14 25v178q0 16 8 15q5 0 12 -5l465 -369 q10 -4 11 -18v-123q0 -12 -11 -16l-467 -363q-6 -3 -10 -3q-8 -1 -8 13z" />
<glyph unicode="&#xbc;" horiz-adv-x="1507" d="M80 1157v111q0 10 8 10q94 25 186 65q8 4 19 5h119q10 0 10 -11v-727q0 -12 -12 -12h-168q-12 0 -13 12v580q-72 -27 -139 -41q-10 -2 -10 8zM287 -8l725 1356q8 10 16 10h148q14 0 6 -12l-725 -1356q-6 -12 -17 -13h-147q-9 0 -9 6q0 4 3 9zM809 190v76q0 12 6 19 l344 454q10 10 21 11h127q12 0 12 -13v-440h123q8 0 8 -8l-16 -99q-4 -10 -11 -10h-104v-168q0 -14 -10 -14h-152q-10 0 -10 14v168h-330q-8 0 -8 10zM954 297h193q0 152 6 274h-6q-31 -53 -193 -274z" />
<glyph unicode="&#xbd;" horiz-adv-x="1544" d="M66 1157v111q0 10 8 10q82 20 188 65q4 4 17 5h120q8 0 9 -11v-727q0 -12 -11 -12h-170q-12 0 -12 12v580q-63 -25 -139 -41q-10 -4 -10 8zM244 -8l727 1358q6 8 14 8h150q4 0 6 -3t-2 -7l-723 -1358q-10 -12 -19 -13h-145q-10 0 -10 7q0 4 2 8zM895 10v88q0 6 6 13 q16 12 63.5 43.5t71.5 50.5l66 49q41 31 63.5 55.5l48 55t37 60.5t11.5 58q0 55 -37 90t-111 35q-94 0 -194 -57q-16 -10 -17 8v119q0 10 10 18q113 63 248 66q135 0 209 -70.5t74 -177.5q0 -104 -67.5 -185t-200.5 -179h311q6 0 6 -11l-25 -129q-6 -10 -14 -10h-549 q-10 0 -10 10z" />
<glyph unicode="&#xbe;" horiz-adv-x="1579" d="M82 653v123q0 10 12 6q106 -59 221 -59q72 0 108 27.5t36 66.5q0 94 -162 94h-74q-8 0 -8 11v104q0 10 10 10h74q131 0 131 88q0 41 -34 67t-103 26q-98 0 -189 -50q-12 -4 -12 7v112q0 8 6 12q106 59 236 60q125 0 195.5 -55.5t70.5 -141.5q0 -121 -127 -166v-2 q166 -39 166 -178q0 -115 -88 -173t-227 -58q-135 0 -232 51q-10 4 -10 18zM385 -8l727 1358q6 8 14 8h150q4 0 6 -3t-2 -7l-725 -1358q-6 -12 -16 -13h-146q-11 0 -11 7q0 3 3 8zM889 190v76q0 8 6 19l346 454q10 10 21 11h124q14 0 15 -13v-440h123q8 0 6 -8l-14 -99 q-4 -10 -13 -10h-102v-170q0 -12 -12 -12h-150q-12 0 -12 12v170h-328q-10 0 -10 10zM1036 297h191q0 152 6 274h-4q-46 -71 -193 -274z" />
<glyph unicode="&#xbf;" horiz-adv-x="856" d="M74 -94q0 76 45 151.5t99 124.5t99 103.5t45 91.5q0 49 -36 108q-8 16 10 17h180q14 0 25 -10q53 -59 53 -140q0 -55 -42 -113.5t-92 -100.5t-92 -100t-42 -114q0 -63 51 -106t141 -43q127 0 246 51q16 8 16 -8v-162q0 -16 -8 -21q-133 -63 -307 -63q-176 0 -283.5 92 t-107.5 242zM295 807q0 66 38 104.5t105 38.5q63 0 103.5 -39t40.5 -104q0 -63 -40 -102t-103.5 -39t-103.5 40t-40 101z" />
<glyph unicode="&#xc0;" horiz-adv-x="1347" d="M59 20l428 1190q12 41 17 113q0 12 12 12h283q12 0 16 -10l473 -1307q2 -5 2 -8q0 -10 -14 -10h-229q-12 0 -19 12l-131 361h-469l-125 -357q-2 -16 -20 -16h-209q-16 0 -16 12q0 3 1 8zM292 1678q3 5 11 5h250q18 0 25 -10l219 -233q12 -18 -9 -19h-200q-18 0 -31 13 l-262 233q-4 4 -4 8q0 1 1 3zM481 573h361q-18 61 -89 271.5t-94 285.5h-2q-14 -61 -42 -149l-71 -221z" />
<glyph unicode="&#xc1;" horiz-adv-x="1347" d="M59 20l428 1190q12 41 17 113q0 12 12 12h283q12 0 16 -10l473 -1307q2 -5 2 -8q0 -10 -14 -10h-229q-12 0 -19 12l-131 361h-469l-125 -357q-2 -16 -20 -16h-209q-16 0 -16 12q0 3 1 8zM481 573h361q-18 61 -89 271.5t-94 285.5h-2q-14 -61 -42 -149l-71 -221zM517 1430 q-1 3 -1 4q0 3 2 6l221 237q6 8 23 9h246q10 0 10 -7q0 -4 -4 -10l-254 -231q-14 -14 -29 -15h-205q-6 1 -9 7z" />
<glyph unicode="&#xc2;" horiz-adv-x="1347" d="M59 20l428 1190q12 41 17 113q0 12 12 12h283q12 0 16 -10l473 -1307q2 -5 2 -8q0 -10 -14 -10h-229q-12 0 -19 12l-131 361h-469l-125 -357q-2 -16 -20 -16h-209q-16 0 -16 12q0 3 1 8zM317 1428q0 4 5 8l229 237q8 8 20 8h185q14 0 24 -10l238 -239q5 -5 4 -8 q0 -5 -12 -5h-197q-14 0 -25 11l-129 133l-129 -133q-8 -10 -20 -11h-184q-9 0 -9 9zM481 573h361q-18 61 -89 271.5t-94 285.5h-2q-14 -61 -42 -149l-71 -221z" />
<glyph unicode="&#xc3;" horiz-adv-x="1347" d="M59 20l428 1190q12 41 17 113q0 12 12 12h283q12 0 16 -10l473 -1307q2 -5 2 -8q0 -10 -14 -10h-229q-12 0 -19 12l-131 361h-469l-125 -357q-2 -16 -20 -16h-209q-16 0 -16 12q0 3 1 8zM317 1446q2 125 61.5 191.5t147.5 66.5q74 0 157 -51t110 -51q53 0 59 84 q0 12 12 12h135q14 0 15 -12q-8 -254 -199 -254q-70 0 -151.5 50t-114.5 50q-25 0 -43.5 -22.5t-22.5 -63.5q0 -12 -12 -12h-137q-15 0 -17 12zM481 573h361q-18 61 -89 271.5t-94 285.5h-2q-14 -61 -42 -149l-71 -221z" />
<glyph unicode="&#xc4;" horiz-adv-x="1347" d="M59 20l428 1190q12 41 17 113q0 12 12 12h283q12 0 16 -10l473 -1307q2 -5 2 -8q0 -10 -14 -10h-229q-12 0 -19 12l-131 361h-469l-125 -357q-2 -16 -20 -16h-209q-16 0 -16 12q0 3 1 8zM317 1554q0 53 38 88t98 35q57 0 93 -34.5t36 -88.5q0 -55 -37 -87.5t-96.5 -32.5 t-95.5 32.5t-36 87.5zM481 573h361q-18 61 -89 271.5t-94 285.5h-2q-14 -61 -42 -149l-71 -221zM743 1554q0 53 38 88t95.5 35t94.5 -34.5t37 -88.5q0 -55 -37 -87.5t-99 -32.5q-57 0 -93 32.5t-36 87.5z" />
<glyph unicode="&#xc5;" horiz-adv-x="1347" d="M59 20l428 1190q12 41 17 113q0 12 12 12h283q12 0 16 -10l473 -1307q2 -5 2 -8q0 -10 -14 -10h-229q-12 0 -19 12l-131 361h-469l-125 -357q-2 -16 -20 -16h-209q-16 0 -16 12q0 3 1 8zM438 1561q0 86 62.5 135t158.5 49q98 0 161 -51.5t63 -132.5q0 -88 -62.5 -138.5 t-161 -50.5t-160 50.5t-61.5 138.5zM481 573h361q-18 61 -89 271.5t-94 285.5h-2q-14 -61 -42 -149l-71 -221zM569 1561q0 -39 24.5 -61.5t65.5 -22.5t67 22.5t26 61.5q0 37 -26 59t-67 22t-65.5 -22t-24.5 -59z" />
<glyph unicode="&#xc6;" horiz-adv-x="1777" d="M59 18l535 1201q18 53 31 106q2 10 14 10h928q14 0 16 -12l23 -174q0 -12 -15 -12h-551l45 -375h494q12 0 12 -12v-175q0 -12 -12 -12h-463l43 -364h543q12 0 12 -15l-31 -172q-2 -12 -16 -12h-717q-10 0 -10 8l-51 404h-397l-173 -400q-6 -12 -18 -12h-229q-14 0 -14 10 q-1 3 1 8zM567 610h297l-43 334q-2 29 -11 107l-13 114h-4l-80 -211z" />
<glyph unicode="&#xc7;" horiz-adv-x="1230" d="M109 666q0 297 199.5 494.5t522.5 197.5q195 0 285 -45q10 -6 10 -21v-186q0 -16 -14 -12q-121 51 -274 51q-213 0 -344.5 -127t-131.5 -346q0 -131 44.5 -228.5t116 -147.5t148.5 -72.5t160 -22.5q162 0 295 55q14 6 15 -12v-178q0 -20 -15 -25q-100 -51 -288 -61 l-47 -64q174 -49 174 -192q0 -88 -68 -142.5t-176 -54.5q-90 0 -152 29q-10 2 -10 16v104q0 14 12 9q63 -27 134 -27q88 0 88 61q0 72 -193 99q-4 4 -5 24.5t5 26.5l90 117q-254 29 -417.5 199t-163.5 481z" />
<glyph unicode="&#xc8;" horiz-adv-x="1101" d="M156 18v1301q0 16 16 16h789q16 0 18 -12l20 -168q4 -18 -12 -18h-584v-355h527q14 0 14 -14v-172q0 -14 -16 -14h-525v-383h619q14 0 12 -17l-28 -166q-2 -16 -21 -16h-813q-16 0 -16 18zM227 1700h250q18 0 25 -10l219 -234q5 -7 5 -11q0 -7 -13 -7h-201q-18 0 -31 12 l-262 233q-5 5 -4 9q-1 8 12 8z" />
<glyph unicode="&#xc9;" horiz-adv-x="1101" d="M156 18v1301q0 16 16 16h789q16 0 18 -12l20 -168q4 -18 -12 -18h-584v-355h527q14 0 14 -14v-172q0 -14 -16 -14h-525v-383h619q14 0 12 -17l-28 -166q-2 -16 -21 -16h-813q-16 0 -16 18zM427 1442q0 3 3 6l219 238q8 10 25 10h244q12 0 11 -7q0 -4 -3 -10l-256 -233 q-12 -12 -29 -12h-203q-11 0 -11 8z" />
<glyph unicode="&#xca;" horiz-adv-x="1101" d="M156 18v1301q0 16 16 16h789q16 0 18 -12l20 -168q4 -18 -12 -18h-584v-355h527q14 0 14 -14v-172q0 -14 -16 -14h-525v-383h619q14 0 12 -17l-28 -166q-2 -16 -21 -16h-813q-16 0 -16 18zM217 1443q0 4 4 7l230 240q8 6 20 6h184q18 0 25 -8l238 -242q5 -5 4 -8 q0 -5 -13 -4h-196q-14 0 -25 10l-129 133l-127 -131q-12 -12 -22 -12h-185q-8 0 -8 9z" />
<glyph unicode="&#xcb;" horiz-adv-x="1101" d="M156 18v1301q0 16 16 16h789q16 0 18 -12l20 -168q4 -18 -12 -18h-584v-355h527q14 0 14 -14v-172q0 -14 -16 -14h-525v-383h619q14 0 12 -17l-28 -166q-2 -16 -21 -16h-813q-16 0 -16 18zM219 1565q0 53 38 88t97.5 35t95 -35t35.5 -88q0 -55 -37.5 -88t-97 -33 t-95.5 33t-36 88zM645 1565q0 53 39 88t96.5 35t94 -35t36.5 -88q0 -55 -36.5 -88t-98.5 -33q-57 0 -94 33t-37 88z" />
<glyph unicode="&#xcc;" horiz-adv-x="559" d="M-82 1700h252q16 0 25 -10l219 -236q5 -6 4 -10q0 -6 -12 -6h-203q-16 0 -29 10l-262 233q-5 5 -5 10q0 9 11 9zM156 18v1303q0 14 16 14h215q16 0 16 -14v-1303q0 -18 -18 -18h-213q-16 0 -16 18z" />
<glyph unicode="&#xcd;" horiz-adv-x="559" d="M141 1434q0 3 2 6l220 237q8 10 24 11h244q8 0 9 -7v-2q0 -5 -3 -8l-254 -233q-14 -12 -29 -13h-202q-11 1 -11 9zM156 18v1303q0 14 16 14h215q16 0 16 -14v-1303q0 -18 -18 -18h-213q-16 0 -16 18z" />
<glyph unicode="&#xce;" horiz-adv-x="559" d="M-71 1433q0 5 3 9l230 237q8 8 20 9h185q18 0 24 -11l238 -239q3 -3 2 -6v-4q-2 -5 -10 -5h-197q-12 0 -25 13l-129 133l-127 -133q-12 -12 -22 -13h-184q-8 0 -8 10zM156 18v1303q0 14 16 14h215q16 0 16 -14v-1303q0 -18 -18 -18h-213q-16 0 -16 18z" />
<glyph unicode="&#xcf;" horiz-adv-x="559" d="M-68 1563q0 53 39 88t99 35q57 0 93 -35t36 -88q0 -55 -38 -88t-97.5 -33t-95.5 33t-36 88zM156 18v1303q0 14 16 14h215q16 0 16 -14v-1303q0 -18 -18 -18h-213q-16 0 -16 18zM358 1563q0 53 39 88t96.5 35t94.5 -35t37 -88q0 -57 -37 -89t-99 -32q-57 0 -94 33t-37 88z " />
<glyph unicode="&#xd0;" horiz-adv-x="1406" d="M41 610v150q0 10 12 10h123v553q0 12 10 12q145 6 394 6q342 0 529 -174t187 -481q0 -170 -53 -299t-131 -201.5t-184.5 -117.5t-195.5 -59.5t-183 -14.5q-176 0 -356 6q-16 0 -17 18v578h-123q-12 0 -12 14zM424 195q4 0 47 -2.5t82 -2.5q225 0 357 121t132 369 q0 233 -124.5 349t-337.5 116q-111 0 -156 -4v-371h278q12 0 13 -12v-150q0 -12 -13 -12h-278v-401z" />
<glyph unicode="&#xd1;" horiz-adv-x="1400" d="M156 18v1305q0 12 14 12h276q16 0 25 -12q504 -920 543 -1012h4q-6 166 -6 344v666q0 14 16 14h199q16 0 16 -16v-1301q0 -18 -18 -18h-269q-14 0 -26 14q-55 121 -281.5 544t-267.5 519h-2q8 -104 8 -403v-658q0 -16 -14 -16h-199q-18 0 -18 18zM365 1462 q0 125 59 191.5t147 66.5q74 0 157 -52t110 -52q53 0 59 86q0 12 12 12h135q14 0 15 -12q-8 -256 -199 -256q-68 0 -150.5 50t-115.5 50q-57 0 -66 -86q0 -10 -12 -10h-137q-14 0 -14 12z" />
<glyph unicode="&#xd2;" horiz-adv-x="1482" d="M106 672q0 307 177.5 496.5t459.5 189.5q285 0 457 -194.5t174 -487.5q0 -324 -175 -510t-458 -186q-293 0 -464 187.5t-171 504.5zM362 670q0 -217 103.5 -350.5t284.5 -133.5q174 0 272 129t98 355q0 217 -103.5 350t-277.5 133q-168 0 -272.5 -128t-104.5 -355z M379 1694q-5 6 -5 10q0 6 13 6h250q18 0 27 -10l217 -234q5 -7 4 -11q0 -7 -13 -7h-200q-16 0 -29 12z" />
<glyph unicode="&#xd3;" horiz-adv-x="1482" d="M106 672q0 307 177.5 496.5t459.5 189.5q285 0 457 -194.5t174 -487.5q0 -324 -175 -510t-458 -186q-293 0 -464 187.5t-171 504.5zM362 670q0 -217 103.5 -350.5t284.5 -133.5q174 0 272 129t98 355q0 217 -103.5 350t-277.5 133q-168 0 -272.5 -128t-104.5 -355z M589 1449l-2 4q0 3 3 5l221 240q6 8 23 8h245q10 0 10 -6q0 -4 -4 -10l-254 -234q-16 -12 -28 -12h-205q-6 0 -9 5z" />
<glyph unicode="&#xd4;" horiz-adv-x="1482" d="M106 672q0 307 177.5 496.5t459.5 189.5q285 0 457 -194.5t174 -487.5q0 -324 -175 -510t-458 -186q-293 0 -464 187.5t-171 504.5zM362 670q0 -217 103.5 -350.5t284.5 -133.5q174 0 272 129t98 355q0 217 -103.5 350t-277.5 133q-168 0 -272.5 -128t-104.5 -355z M390 1450q0 5 3 8l230 238q8 8 20 8h184q18 0 25 -10l240 -240q3 -4 2 -7q0 -5 -11 -5h-198q-14 0 -25 10l-129 133l-127 -133q-10 -10 -22 -10h-183q-9 -1 -9 8z" />
<glyph unicode="&#xd5;" horiz-adv-x="1482" d="M106 672q0 307 177.5 496.5t459.5 189.5q285 0 457 -194.5t174 -487.5q0 -324 -175 -510t-458 -186q-293 0 -464 187.5t-171 504.5zM362 670q0 -217 103.5 -350.5t284.5 -133.5q174 0 272 129t98 355q0 217 -103.5 350t-277.5 133q-168 0 -272.5 -128t-104.5 -355z M395 1464q0 125 59.5 191.5t147.5 66.5q74 0 157 -52t109 -52q53 0 60 86q0 12 12 12h135q14 0 15 -12q-8 -256 -199 -256q-68 0 -152 50t-114 50q-57 0 -66 -86q0 -10 -12 -10h-137q-15 0 -15 12z" />
<glyph unicode="&#xd6;" horiz-adv-x="1482" d="M106 672q0 307 177.5 496.5t459.5 189.5q285 0 457 -194.5t174 -487.5q0 -324 -175 -510t-458 -186q-293 0 -464 187.5t-171 504.5zM362 670q0 -217 103.5 -350.5t284.5 -133.5q174 0 272 129t98 355q0 217 -103.5 350t-277.5 133q-168 0 -272.5 -128t-104.5 -355z M395 1569q0 55 38 89t97 34q57 0 93 -35t36 -88t-36.5 -86t-96 -33t-95.5 33t-36 86zM821 1568.5q0 55.5 38 89.5t97 34q57 0 93 -35t36 -88q0 -55 -36.5 -87t-98.5 -32q-57 0 -93 31.5t-36 87z" />
<glyph unicode="&#xd7;" horiz-adv-x="1140" d="M82 127q-5 5 -5 10q0 6 7 13l371 376l-373 381q-4 4 -4 9q0 6 6 14l94 96q5 5 11.5 5t13.5 -5l368 -385l371 385q7 5 13.5 5t11.5 -5l92 -98q5 -6 5 -12t-5 -11l-373 -379l375 -381q7 -4 7 -9.5t-7 -12.5l-96 -96q-5 -3 -10 -4l-15 8l-369 379l-370 -381q-7 -7 -12 -7 t-9 5z" />
<glyph unicode="&#xd8;" horiz-adv-x="1482" d="M109 677q0 302 176 490q178 190 460 191q180 0 312 -82l37 51q6 8 16 8h145q16 0 11 -12l-90 -135q92 -86 145 -219t53 -293v-8q0 -312 -171 -499q-173 -189 -453 -189q-201 0 -344 90l-46 -62q-2 -8 -16 -8h-145q-18 0 -9 14l101 142q-182 193 -182 521zM360 672 q0 -188 82 -310l494 730q-80 63 -201 63q-162 0 -268.5 -125t-106.5 -358zM543 248q88 -68 211 -68q176 2 273 133t97 359q0 205 -92 311z" />
<glyph unicode="&#xd9;" horiz-adv-x="1388" d="M156 487v832q0 16 16 16h215q16 0 16 -14v-829q0 -145 75 -226.5t220 -81.5q287 0 287 316v819q0 16 16 16h213q18 0 19 -16v-821q0 -266 -148.5 -392t-390.5 -126q-248 0 -393 127.5t-145 379.5zM350 1669q-5 6 -4 10q0 6 12 7h250q18 0 27 -11l217 -233q5 -7 5 -11 q0 -7 -13 -8h-201q-18 0 -29 11z" />
<glyph unicode="&#xda;" horiz-adv-x="1388" d="M156 487v832q0 16 16 16h215q16 0 16 -14v-829q0 -145 75 -226.5t220 -81.5q287 0 287 316v819q0 16 16 16h213q18 0 19 -16v-821q0 -266 -148.5 -392t-390.5 -126q-248 0 -393 127.5t-145 379.5zM558 1426q-1 2 -1 5t2 5l221 237q6 10 23 10h246q10 0 10 -6q0 -4 -4 -10 l-256 -233q-12 -12 -29 -13h-203q-6 0 -9 5z" />
<glyph unicode="&#xdb;" horiz-adv-x="1388" d="M156 487v832q0 16 16 16h215q16 0 16 -14v-829q0 -145 75 -226.5t220 -81.5q287 0 287 316v819q0 16 16 16h213q18 0 19 -16v-821q0 -266 -148.5 -392t-390.5 -126q-248 0 -393 127.5t-145 379.5zM349 1434q0 5 3 8l230 237q8 8 20 9h184q20 0 25 -11l238 -239q5 -5 4 -8 q0 -4 -11 -5h-198q-14 0 -25 11l-129 133l-127 -131q-10 -12 -22 -13h-183q-9 0 -9 9z" />
<glyph unicode="&#xdc;" horiz-adv-x="1388" d="M156 487v832q0 16 16 16h215q16 0 16 -14v-829q0 -145 75 -226.5t220 -81.5q287 0 287 316v819q0 16 16 16h213q18 0 19 -16v-821q0 -266 -148.5 -392t-390.5 -126q-248 0 -393 127.5t-145 379.5zM346 1563q0 53 39 88t98 35q57 0 93 -35t36 -90q0 -53 -36.5 -86t-96 -33 t-96.5 33t-37 88zM772 1560.5q0 55.5 39 90.5t96.5 35t94 -36t36.5 -89q0 -55 -36.5 -87t-98.5 -32q-57 0 -94 31.5t-37 87z" />
<glyph unicode="&#xdd;" horiz-adv-x="1222" d="M31 1317q-3 6 -3 10q0 9 15 8h248q12 0 18 -10q256 -498 316 -631l305 631q2 10 16 10h238q11 0 11 -6q0 -3 -3 -8l-442 -791q-16 -27 -17 -63v-449q0 -18 -18 -18h-211q-18 0 -19 18v459q0 33 -14 60zM474 1433q0 4 3 7l221 237q6 8 23 9h246q10 0 10 -7q0 -4 -4 -10 l-256 -231q-12 -14 -29 -15h-203q-11 0 -11 10z" />
<glyph unicode="&#xde;" horiz-adv-x="1167" d="M154 1325q0 10 12 10h219q16 0 16 -12v-238q61 4 168 5q229 0 364.5 -104.5t135.5 -307.5q0 -219 -148.5 -323.5t-390.5 -104.5q-25 0 -71.5 1t-57.5 1v-236q0 -16 -14 -16h-219q-14 0 -14 14v1311zM401 449q57 -4 131 -5q147 0 220 59.5t73 168.5q0 225 -282 225 q-88 0 -142 -4v-444z" />
<glyph unicode="&#xdf;" horiz-adv-x="1224" d="M18 831v150q0 14 11 14h125q8 221 143 348t358 127q121 0 211 -37.5t138.5 -98t71 -123t22.5 -126.5q0 -76 -15 -104q-100 -100 -256 -199l154 -114q113 -88 151.5 -163t38.5 -173q0 -152 -108.5 -252t-288.5 -100q-172 0 -260 55q-14 10 -14 33v178q0 18 14 8 q121 -72 260 -72q72 0 114 39t42 94q0 49 -25.5 88t-97.5 97q-113 90 -211 145q-6 6 -6 14v166q0 4 4 13q182 121 262 204q4 20 4 50q0 78 -55 138t-156 60q-248 0 -248 -321v-953q0 -16 -12 -16h-221q-14 0 -14 16v795l-125 4q-11 0 -11 16z" />
<glyph unicode="&#xe0;" horiz-adv-x="1038" d="M63 307q0 327 524 327q37 0 77 -1v33q0 20 -7.5 41.5t-28 48t-64.5 43t-105 16.5q-145 0 -281 -67q-16 -4 -16 12v160q0 16 12 20q152 76 332 76q197 0 297 -108.5t100 -286.5v-406q0 -63 6 -127q0 -8 -6 -10q-209 -98 -428 -98q-182 0 -297 81.5t-115 245.5zM236 1413 q-4 7 -4 12q0 7 10 7h237q16 0 21 -11l170 -301q5 -6 4 -10q0 -6 -12 -6h-189q-12 0 -20 12zM305 311q0 -63 52.5 -105t156.5 -42q94 0 150 20v285q-33 1 -63 1q-146 0 -214 -33q-82 -40 -82 -126z" />
<glyph unicode="&#xe1;" horiz-adv-x="1038" d="M63 307q0 327 524 327q37 0 77 -1v33q0 20 -7.5 41.5t-28 48t-64.5 43t-105 16.5q-145 0 -281 -67q-16 -4 -16 12v160q0 16 12 20q152 76 332 76q197 0 297 -108.5t100 -286.5v-406q0 -63 6 -127q0 -8 -6 -10q-209 -98 -428 -98q-182 0 -297 81.5t-115 245.5zM305 311 q0 -63 52.5 -105t156.5 -42q94 0 150 20v285q-33 1 -63 1q-146 0 -214 -33q-82 -40 -82 -126zM397 1118l158 297q8 16 25 17h233q13 0 13 -9q0 -4 -3 -10l-202 -299q-10 -10 -29 -10h-186q-11 0 -11 6q-1 3 2 8z" />
<glyph unicode="&#xe2;" horiz-adv-x="1038" d="M63 307q0 327 524 327q37 0 77 -1v33q0 20 -7.5 41.5t-28 48t-64.5 43t-105 16.5q-145 0 -281 -67q-16 -4 -16 12v160q0 16 12 20q152 76 332 76q197 0 297 -108.5t100 -286.5v-406q0 -63 6 -127q0 -8 -6 -10q-209 -98 -428 -98q-182 0 -297 81.5t-115 245.5zM199 1106 q0 5 4 8l205 303q8 8 18 8h182q14 0 19 -10l211 -303q3 -3 2 -6v-3q-2 -5 -11 -5h-170q-12 0 -20 8l-127 199q-74 -123 -129 -199q-6 -8 -18 -8h-156q-10 -1 -10 8zM305 311q0 -63 52.5 -105t156.5 -42q94 0 150 20v285q-33 1 -63 1q-146 0 -214 -33q-82 -40 -82 -126z" />
<glyph unicode="&#xe3;" horiz-adv-x="1038" d="M63 307q0 327 524 327q37 0 77 -1v33q0 20 -7.5 41.5t-28 48t-64.5 43t-105 16.5q-145 0 -281 -67q-16 -4 -16 12v160q0 16 12 20q152 76 332 76q197 0 297 -108.5t100 -286.5v-406q0 -63 6 -127q0 -8 -6 -10q-209 -98 -428 -98q-182 0 -297 81.5t-115 245.5zM164 1151 q0 131 59.5 198.5t151.5 67.5q72 0 164 -51t116 -51q57 0 64 88q0 12 12 12h135q14 0 15 -12q-6 -270 -203 -270q-63 0 -154.5 50t-126.5 50q-66 0 -71 -86q0 -10 -13 -10h-135q-14 0 -14 14zM305 311q0 -63 52.5 -105t156.5 -42q94 0 150 20v285q-33 1 -63 1 q-146 0 -214 -33q-82 -40 -82 -126z" />
<glyph unicode="&#xe4;" horiz-adv-x="1038" d="M63 307q0 327 524 327q37 0 77 -1v33q0 20 -7.5 41.5t-28 48t-64.5 43t-105 16.5q-145 0 -281 -67q-16 -4 -16 12v160q0 16 12 20q152 76 332 76q197 0 297 -108.5t100 -286.5v-406q0 -63 6 -127q0 -8 -6 -10q-209 -98 -428 -98q-182 0 -297 81.5t-115 245.5zM197 1257 q0 55 35.5 91t91.5 36q53 0 86.5 -34.5t33.5 -92t-34.5 -91t-90.5 -33.5q-53 0 -87.5 33.5t-34.5 90.5zM305 311q0 -63 52.5 -105t156.5 -42q94 0 150 20v285q-33 1 -63 1q-146 0 -214 -33q-82 -40 -82 -126zM596 1257q0 55 36 91t89 36q55 0 88 -34.5t33 -92t-34 -91 t-89 -33.5t-89 33.5t-34 90.5z" />
<glyph unicode="&#xe5;" horiz-adv-x="1038" d="M63 307q0 327 524 327q37 0 77 -1v33q0 20 -7.5 41.5t-28 48t-64.5 43t-105 16.5q-145 0 -281 -67q-16 -4 -16 12v160q0 16 12 20q152 76 332 76q197 0 297 -108.5t100 -286.5v-406q0 -63 6 -127q0 -8 -6 -10q-209 -98 -428 -98q-182 0 -297 81.5t-115 245.5zM299 1280 q0 86 61.5 141.5t159.5 55.5t159.5 -55.5t61.5 -141.5q0 -90 -61.5 -144.5t-159.5 -54.5q-100 0 -160.5 53.5t-60.5 145.5zM305 311q0 -63 52.5 -105t156.5 -42q94 0 150 20v285q-33 1 -63 1q-146 0 -214 -33q-82 -40 -82 -126zM426 1280q0 -41 26.5 -65.5t67.5 -24.5 t67.5 24.5t26.5 65.5t-27.5 65.5t-66.5 24.5q-41 0 -67.5 -24.5t-26.5 -65.5z" />
<glyph unicode="&#xe6;" horiz-adv-x="1638" d="M59 303q0 154 132.5 227.5t345.5 73.5h129v49q0 166 -220 166q-135 0 -272 -61q-16 -6 -16 12v156q0 12 10 16q158 74 324 74q238 0 311 -150q121 150 334 150q113 0 197.5 -40t131.5 -104.5t71 -135t24 -144.5q0 -131 -21 -137q-53 -14 -217 -15h-430q4 -115 85 -186.5 t239 -71.5q131 0 258 51q14 8 14 -8v-162q0 -14 -12 -22q-117 -61 -322 -61q-221 0 -340 122q-164 -123 -373 -122q-70 0 -134 17t-121.5 53t-92.5 101.5t-35 151.5zM303 305q0 -66 49 -102.5t137 -36.5q123 0 222 76q-45 88 -47 209h-127q-106 0 -170 -37t-64 -109z M895 600h360q63 0 68 12q4 10 4 39q0 63 -49 126t-154 63q-94 0 -157.5 -65.5t-71.5 -174.5z" />
<glyph unicode="&#xe7;" horiz-adv-x="915" d="M88 494q0 229 149.5 375.5t389.5 146.5q133 0 207 -37q10 -4 10 -21l-2 -165q0 -18 -15 -11q-84 37 -184 37q-137 0 -219 -87t-82 -232q0 -160 85 -239t210 -79q109 0 190 37q14 2 15 -10v-166q0 -14 -11 -18q-84 -41 -196 -43l-47 -66q176 -49 176 -192 q0 -86 -68.5 -141.5t-177.5 -55.5q-94 0 -147 29q-12 4 -13 22v96q0 16 15 11q63 -27 131 -27q86 0 86 61q0 72 -191 99q-4 4 -5 24.5t3 26.5l92 117q-195 31 -298 168t-103 340z" />
<glyph unicode="&#xe8;" horiz-adv-x="1067" d="M86 492q0 227 129 375.5t352 148.5q109 0 193 -38t132 -100.5t72.5 -134t24.5 -147.5q0 -121 -18 -135q-29 -12 -215 -12h-418q4 -123 81 -195t226 -72q139 0 256 51q12 4 12 -10v-164q0 -16 -12 -22q-106 -53 -307 -57q-135 0 -236.5 43t-159 116.5t-85 163t-27.5 189.5 zM254 1413q-4 7 -4 12q0 7 10 7h238q12 0 20 -11l170 -301q12 -16 -8 -16h-191q-10 0 -18 12zM338 606h328q86 0 90 17v22q0 66 -47 130.5t-152 64.5q-96 0 -151.5 -65t-67.5 -169z" />
<glyph unicode="&#xe9;" horiz-adv-x="1067" d="M86 492q0 227 129 375.5t352 148.5q109 0 193 -38t132 -100.5t72.5 -134t24.5 -147.5q0 -121 -18 -135q-29 -12 -215 -12h-418q4 -123 81 -195t226 -72q139 0 256 51q12 4 12 -10v-164q0 -16 -12 -22q-106 -53 -307 -57q-135 0 -236.5 43t-159 116.5t-85 163t-27.5 189.5 zM338 606h328q86 0 90 17v22q0 66 -47 130.5t-152 64.5q-96 0 -151.5 -65t-67.5 -169zM428 1118l158 297q8 16 24 17h234q14 0 13 -9q0 -4 -3 -10l-203 -299q-10 -10 -28 -10h-187q-10 0 -10 7q0 3 2 7z" />
<glyph unicode="&#xea;" horiz-adv-x="1067" d="M86 492q0 227 129 375.5t352 148.5q109 0 193 -38t132 -100.5t72.5 -134t24.5 -147.5q0 -121 -18 -135q-29 -12 -215 -12h-418q4 -123 81 -195t226 -72q139 0 256 51q12 4 12 -10v-164q0 -16 -12 -22q-106 -53 -307 -57q-135 0 -236.5 43t-159 116.5t-85 163t-27.5 189.5 zM233 1107q0 3 5 7l204 303q8 8 19 8h182q12 0 19 -10l210 -303q3 -3 3 -6q0 -8 -11 -8h-170q-12 0 -20 8l-127 199q-74 -123 -129 -199q-6 -8 -19 -8h-153q-6 0 -9.5 3t-3.5 6zM338 606h328q86 0 90 17v22q0 66 -47 130.5t-152 64.5q-96 0 -151.5 -65t-67.5 -169z" />
<glyph unicode="&#xeb;" horiz-adv-x="1067" d="M86 492q0 227 129 375.5t352 148.5q109 0 193 -38t132 -100.5t72.5 -134t24.5 -147.5q0 -121 -18 -135q-29 -12 -215 -12h-418q4 -123 81 -195t226 -72q139 0 256 51q12 4 12 -10v-164q0 -16 -12 -22q-106 -53 -307 -57q-135 0 -236.5 43t-159 116.5t-85 163t-27.5 189.5 zM221 1257q0 55 36 91t91 36q53 0 87 -34.5t34 -92t-35 -91t-90 -33.5q-53 0 -88 33.5t-35 90.5zM338 606h328q86 0 90 17v22q0 66 -47 130.5t-152 64.5q-96 0 -151.5 -65t-67.5 -169zM621 1257q0 55 35.5 91t88.5 36q55 0 88 -34.5t33 -92t-33.5 -91t-89 -33.5t-89 33.5 t-33.5 90.5z" />
<glyph unicode="&#xec;" horiz-adv-x="518" d="M-61 1413q-3 6 -3 10q0 8 11 9h237q12 0 21 -11l170 -301q8 -16 -10 -16h-189q-10 0 -18 12zM135 18v961q0 16 15 16h217q16 0 16 -16v-963q0 -16 -16 -16h-213q-19 0 -19 18z" />
<glyph unicode="&#xed;" horiz-adv-x="518" d="M135 18v961q0 16 15 16h217q16 0 16 -16v-963q0 -16 -16 -16h-213q-19 0 -19 18zM141 1118l158 297q8 16 25 17h233q14 0 14 -9q0 -4 -4 -10l-202 -299q-10 -10 -29 -10h-186q-10 0 -11 7q0 3 2 7z" />
<glyph unicode="&#xee;" horiz-adv-x="518" d="M-57 1114l207 303q6 8 16 8h182q12 0 19 -10l213 -303q2 -2 2 -5q0 -2 -1 -4q-3 -5 -10 -5h-170q-12 0 -20 8l-129 199q-57 -100 -127 -199q-6 -8 -19 -8h-155q-12 0 -12 6q0 4 4 10zM135 18v961q0 16 15 16h217q16 0 16 -16v-963q0 -16 -16 -16h-213q-19 0 -19 18z" />
<glyph unicode="&#xef;" horiz-adv-x="518" d="M-63 1257q0 55 35.5 91t90.5 36q53 0 87 -34.5t34 -92t-34.5 -91t-90 -33.5t-89 33.5t-33.5 90.5zM135 18v961q0 16 15 16h217q16 0 16 -16v-963q0 -16 -16 -16h-213q-19 0 -19 18zM336 1257q0 55 36 91t89 36q55 0 88 -34.5t33 -92t-35 -91t-88 -33.5q-55 0 -89 33.5 t-34 90.5z" />
<glyph unicode="&#xf0;" horiz-adv-x="1181" d="M88 469q0 217 140.5 349t361.5 132q111 0 172 -45q-51 133 -162 209l-289 -149q-14 -10 -14 8v100q0 10 12 17l174 90q-90 57 -272 92q-16 0 -16 18v164q0 16 14 16q27 0 59 -4q250 -43 439 -161l243 133q10 2 11 -6v-107q0 -14 -11 -18l-147 -80q283 -242 282 -662 q0 -281 -141 -433t-371 -152q-238 0 -361.5 141t-123.5 348zM340 469q0 -135 69.5 -217t184.5 -82q106 0 174 87t68 271q0 76 -17 134q-4 14 -20 30q-76 76 -195 76q-111 0 -187.5 -72.5t-76.5 -226.5z" />
<glyph unicode="&#xf1;" horiz-adv-x="1144" d="M125 979q0 16 14 16h187q18 0 24 -14q10 -31 15 -82q135 117 309 117q63 0 119.5 -19.5t106.5 -63.5t80 -129t30 -204v-584q0 -16 -17 -16h-213q-18 0 -18 18v584q0 211 -176 211q-106 0 -205 -88v-709q0 -16 -16 -16h-215q-14 0 -15 18v742q0 117 -10 219zM213 1151 q0 131 59.5 198.5t151.5 67.5q72 0 164 -51t114 -51q57 0 64 88q0 12 12 12h135q14 0 15 -12q-2 -270 -203 -270q-63 0 -153.5 50t-127.5 50q-63 0 -71 -86q-1 -10 -11 -10h-135q-14 0 -14 14z" />
<glyph unicode="&#xf2;" horiz-adv-x="1175" d="M88 498q0 227 139.5 372.5t366.5 145.5q231 0 362 -145.5t131 -368.5q0 -240 -138 -381t-361 -141q-248 0 -374 151.5t-126 366.5zM291 1413q-4 7 -4 12q0 7 10 7h238q12 0 20 -11l170 -301q12 -16 -8 -16h-191q-10 0 -18 12zM340 502q0 -156 66.5 -248t187.5 -92 q104 0 173 82t69 250q0 154 -63.5 247t-190.5 93q-109 0 -175.5 -89t-66.5 -243z" />
<glyph unicode="&#xf3;" horiz-adv-x="1175" d="M88 498q0 227 139.5 372.5t366.5 145.5q231 0 362 -145.5t131 -368.5q0 -240 -138 -381t-361 -141q-248 0 -374 151.5t-126 366.5zM340 502q0 -156 66.5 -248t187.5 -92q104 0 173 82t69 250q0 154 -63.5 247t-190.5 93q-109 0 -175.5 -89t-66.5 -243zM453 1118l157 297 q8 16 25 17h233q14 0 14 -9q0 -4 -3 -10l-203 -299q-10 -10 -29 -10h-186q-10 0 -10 7q0 3 2 7z" />
<glyph unicode="&#xf4;" horiz-adv-x="1175" d="M88 498q0 227 139.5 372.5t366.5 145.5q231 0 362 -145.5t131 -368.5q0 -240 -138 -381t-361 -141q-248 0 -374 151.5t-126 366.5zM270 1114l207 303q6 8 17 8h182q12 0 20 -10l211 -303q2 -2 3 -5q0 -2 -2 -4q-3 -5 -9 -5h-170q-12 0 -20 8l-129 199q-57 -100 -127 -199 q-6 -8 -19 -8h-155q-12 0 -12 6q-1 4 3 10zM340 502q0 -156 66.5 -248t187.5 -92q104 0 173 82t69 250q0 154 -63.5 247t-190.5 93q-109 0 -175.5 -89t-66.5 -243z" />
<glyph unicode="&#xf5;" horiz-adv-x="1175" d="M88 498q0 227 139.5 372.5t366.5 145.5q231 0 362 -145.5t131 -368.5q0 -240 -138 -381t-361 -141q-248 0 -374 151.5t-126 366.5zM233 1151q0 131 59.5 198.5t151.5 67.5q72 0 164 -51t115 -51q57 0 63 88q0 12 13 12h135q14 0 14 -12q-2 -270 -203 -270q-63 0 -153 50 t-127 50q-63 0 -72 -86q0 -10 -10 -10h-135q-15 0 -15 14zM340 502q0 -156 66.5 -248t187.5 -92q104 0 173 82t69 250q0 154 -63.5 247t-190.5 93q-109 0 -175.5 -89t-66.5 -243z" />
<glyph unicode="&#xf6;" horiz-adv-x="1175" d="M88 498q0 227 139.5 372.5t366.5 145.5q231 0 362 -145.5t131 -368.5q0 -240 -138 -381t-361 -141q-248 0 -374 151.5t-126 366.5zM264 1257q0 55 36 91t91 36q53 0 87 -34.5t34 -92t-35 -91t-90 -33.5t-89 33.5t-34 90.5zM340 502q0 -156 66.5 -248t187.5 -92 q104 0 173 82t69 250q0 154 -63.5 247t-190.5 93q-109 0 -175.5 -89t-66.5 -243zM664 1257q0 55 35.5 91t88.5 36q55 0 88 -34.5t33 -92t-34.5 -91t-88.5 -33.5q-55 0 -88.5 33.5t-33.5 90.5z" />
<glyph unicode="&#xf7;" horiz-adv-x="1142" d="M61 467v141q0 16 15 17h989q14 0 14 -15v-145q0 -16 -14 -16h-987q-17 0 -17 18zM486.5 265q31.5 34 85 34t85 -34t31.5 -89q0 -51 -32.5 -85t-86.5 -34q-51 0 -84 34q-31 32 -30 79q0 61 31.5 95zM487.5 981q32.5 33 84 33t84 -33t32.5 -86q0 -55 -31.5 -88t-87.5 -33 q-53 0 -85 34q-30 32 -29 81q0 59 32.5 92z" />
<glyph unicode="&#xf8;" horiz-adv-x="1185" d="M88 494q0 229 139.5 375.5t366.5 146.5q156 0 266 -70l33 41q6 8 16 8h127q20 0 6 -14l-86 -111q139 -133 140 -372q0 -238 -138.5 -378t-361.5 -140q-160 0 -268 69l-41 -53q-6 -8 -25 -8h-123q-18 0 -6 16l92 117q-137 150 -137 373zM332 502q0 -117 47 -187l362 478 q-61 49 -151 49q-115 0 -186.5 -89t-71.5 -251zM451 205q63 -49 149 -49q106 0 181 81.5t75 251.5q0 121 -47 191z" />
<glyph unicode="&#xf9;" horiz-adv-x="1132" d="M135 356v623q0 16 17 16h215q14 0 14 -14v-588q0 -213 172 -213q115 0 197 82v717q0 16 16 16h215q16 0 16 -14v-756q0 -34 5.5 -105.5t5.5 -108.5q0 -11 -15 -11h-190q-16 0 -21 12q-4 14 -10 74q-129 -106 -299 -106q-147 0 -242.5 86.5t-95.5 289.5zM279 1413 q-4 7 -4 11q0 8 12 8h235q14 0 21 -11l172 -301q3 -5 2 -8q0 -8 -12 -8h-189q-12 0 -20 12z" />
<glyph unicode="&#xfa;" horiz-adv-x="1132" d="M135 356v623q0 16 17 16h215q14 0 14 -14v-588q0 -213 172 -213q115 0 197 82v717q0 16 16 16h215q16 0 16 -14v-756q0 -34 5.5 -105.5t5.5 -108.5q0 -11 -15 -11h-190q-16 0 -21 12q-4 14 -10 74q-129 -106 -299 -106q-147 0 -242.5 86.5t-95.5 289.5zM440 1118l158 297 q8 16 25 17h233q14 0 14 -9q0 -4 -4 -10l-202 -299q-10 -10 -29 -10h-186q-10 0 -11 7q0 3 2 7z" />
<glyph unicode="&#xfb;" horiz-adv-x="1132" d="M135 356v623q0 16 17 16h215q14 0 14 -14v-588q0 -213 172 -213q115 0 197 82v717q0 16 16 16h215q16 0 16 -14v-756q0 -34 5.5 -105.5t5.5 -108.5q0 -11 -15 -11h-190q-16 0 -21 12q-4 14 -10 74q-129 -106 -299 -106q-147 0 -242.5 86.5t-95.5 289.5zM252 1114l207 303 q6 8 16 8h182q14 0 19 -10l213 -303q2 -2 2 -5q0 -2 -1 -4q-3 -5 -9 -5h-170q-12 0 -21 8l-129 199q-57 -100 -127 -199q-6 -8 -18 -8h-156q-12 0 -12 6q0 4 4 10z" />
<glyph unicode="&#xfc;" horiz-adv-x="1132" d="M135 356v623q0 16 17 16h215q14 0 14 -14v-588q0 -213 172 -213q115 0 197 82v717q0 16 16 16h215q16 0 16 -14v-756q0 -34 5.5 -105.5t5.5 -108.5q0 -11 -15 -11h-190q-16 0 -21 12q-4 14 -10 74q-129 -106 -299 -106q-147 0 -242.5 86.5t-95.5 289.5zM250 1257 q0 55 36 91t91 36q53 0 87 -34.5t34 -92t-35 -91t-90 -33.5q-53 0 -88 33.5t-35 90.5zM649 1257q0 55 36 91t89 36q55 0 88 -34.5t33 -92t-34 -91t-89 -33.5t-89 33.5t-34 90.5z" />
<glyph unicode="&#xfd;" horiz-adv-x="997" d="M9 985q0 10 14 10h239q12 0 19 -14q207 -565 245 -694h2q104 274 220 694q6 14 20 14h203q15 0 15 -12q0 -3 -1 -6q-98 -414 -336 -916q-174 -356 -297 -503q-12 -14 -33 -15h-233q-10 0 -13 6.5t5 14.5q72 86 170 234.5t139 234.5q10 23 6 35q-39 80 -184 427 q-31 74 -88 194.5t-84.5 189t-27.5 106.5zM373 1118l157 297q8 16 25 17h233q13 0 13 -9q0 -4 -2 -10l-203 -299q-10 -10 -29 -10h-186q-11 0 -11 6q0 3 3 8z" />
<glyph unicode="&#xfe;" horiz-adv-x="1148" d="M135 -432v1868q0 16 15 16h215q16 0 16 -16v-461q82 41 209 41q219 0 344 -146.5t125 -353.5q0 -242 -148.5 -389t-371.5 -147q-94 0 -158 26v-418q0 -14 -12 -18l-217 -21q-17 1 -17 19zM381 199q53 -31 149 -31q111 0 193 85t82 255q0 154 -76 234.5t-199 80.5 q-76 0 -149 -39v-585z" />
<glyph unicode="&#xff;" horiz-adv-x="997" d="M9 985q0 10 14 10h239q12 0 19 -14q207 -565 245 -694h2q104 274 220 694q6 14 20 14h203q15 0 15 -12q0 -3 -1 -6q-98 -414 -336 -916q-174 -356 -297 -503q-12 -14 -33 -15h-233q-10 0 -13 6.5t5 14.5q72 86 170 234.5t139 234.5q10 23 6 35q-39 80 -184 427 q-31 74 -88 194.5t-84.5 189t-27.5 106.5zM176 1257q0 55 36 91t91 36q53 0 87 -34.5t34 -92t-35 -91t-88 -33.5q-55 0 -90 33.5t-35 90.5zM575 1257q0 55 36 91t89 36q55 0 89 -34.5t34 -92.5q0 -55 -34.5 -89.5t-90 -34.5t-89.5 33.5t-34 90.5z" />
<glyph unicode="&#x152;" horiz-adv-x="1939" d="M106 663.5q0 319.5 198 502t513 182.5q72 0 268 -13h717q10 0 15 -10l20 -174q2 -14 -12 -14h-586v-355h530q12 0 13 -14v-172q0 -14 -15 -14h-528v-383h623q12 0 10 -15l-29 -172q-2 -12 -16 -12h-737q-156 -12 -289 -12q-326 0 -510.5 178t-184.5 497.5zM360 670 q0 -238 125 -362t340 -124q92 0 166 9v944q-55 12 -170 12q-209 0 -335 -125t-126 -354z" />
<glyph unicode="&#x153;" horiz-adv-x="1820" d="M88 494q0 233 139.5 377.5t360.5 144.5q260 0 373 -203q115 203 360 203q109 0 191.5 -39t131 -103.5t72 -136t23.5 -145.5q0 -119 -21 -131q-35 -12 -217 -12h-414q2 -119 77 -193t229 -74q141 0 256 49q8 2 11 -1t3 -13v-151q0 -23 -10 -29q-104 -53 -305 -57 q-287 0 -392 194q-121 -195 -370 -194q-244 0 -371 151.5t-127 362.5zM340 502q0 -147 67.5 -235.5t186.5 -88.5q102 0 172 78t70 233q0 154 -62.5 245t-187.5 91q-113 0 -179.5 -83.5t-66.5 -239.5zM1087 606h328q86 0 90 15v20q0 68 -47 133.5t-151 65.5q-94 0 -150 -65 t-70 -169z" />
<glyph unicode="&#x178;" horiz-adv-x="1222" d="M31 1317q-3 6 -3 10q0 9 15 8h248q12 0 18 -10q256 -498 316 -631l305 631q2 10 16 10h238q11 0 11 -6q0 -3 -3 -8l-442 -791q-16 -27 -17 -63v-449q0 -18 -18 -18h-211q-18 0 -19 18v459q0 33 -14 60zM264 1552q0 55 39 89t98 34q57 0 93 -34.5t36 -88.5 q0 -55 -36.5 -86.5t-96 -31.5t-96.5 32.5t-37 85.5zM690 1552q0 53 39 88t96.5 35t94 -34.5t36.5 -88.5q0 -55 -36.5 -86.5t-98.5 -31.5q-57 0 -94 31.5t-37 86.5z" />
<glyph unicode="&#x2c6;" horiz-adv-x="800" d="M82 1114l207 303q6 8 16 8h182q12 0 19 -10l213 -303q2 -2 2 -5q0 -2 -1 -4q-3 -5 -9 -5h-170q-12 0 -21 8l-129 199q-57 -100 -127 -199q-6 -8 -18 -8h-156q-12 0 -12 6q0 4 4 10z" />
<glyph unicode="&#x2dc;" horiz-adv-x="800" d="M45 1151q0 131 59.5 198.5t151.5 67.5q72 0 164 -51t115 -51q57 0 63 88q0 12 12 12h135q14 0 15 -12q-2 -270 -203 -270q-63 0 -153.5 50t-127.5 50q-63 0 -71 -86q0 -10 -10 -10h-136q-14 0 -14 14z" />
<glyph unicode="&#x2000;" horiz-adv-x="872" />
<glyph unicode="&#x2001;" horiz-adv-x="1744" />
<glyph unicode="&#x2002;" horiz-adv-x="872" />
<glyph unicode="&#x2003;" horiz-adv-x="1744" />
<glyph unicode="&#x2004;" horiz-adv-x="581" />
<glyph unicode="&#x2005;" horiz-adv-x="436" />
<glyph unicode="&#x2006;" horiz-adv-x="290" />
<glyph unicode="&#x2007;" horiz-adv-x="290" />
<glyph unicode="&#x2008;" horiz-adv-x="217" />
<glyph unicode="&#x2009;" horiz-adv-x="348" />
<glyph unicode="&#x200a;" horiz-adv-x="96" />
<glyph unicode="&#x2010;" horiz-adv-x="724" d="M109 426v178q0 14 14 14h481q12 0 12 -14v-178q0 -14 -12 -14h-481q-14 0 -14 14z" />
<glyph unicode="&#x2011;" horiz-adv-x="724" d="M109 426v178q0 14 14 14h481q12 0 12 -14v-178q0 -14 -12 -14h-481q-14 0 -14 14z" />
<glyph unicode="&#x2012;" horiz-adv-x="724" d="M109 426v178q0 14 14 14h481q12 0 12 -14v-178q0 -14 -12 -14h-481q-14 0 -14 14z" />
<glyph unicode="&#x2013;" horiz-adv-x="1024" d="M137 440v152q0 14 15 14h722q12 0 13 -12v-154q0 -14 -15 -14h-720q-15 0 -15 14z" />
<glyph unicode="&#x2014;" horiz-adv-x="2048" d="M-6 440v152q0 14 12 14h2030q12 0 12 -14v-152q0 -14 -12 -14h-2026q-16 0 -16 14z" />
<glyph unicode="&#x2018;" horiz-adv-x="460" d="M104 1083q0 190 95 373q6 10 18 10h170q9 0 9 -8q0 -79 -39.5 -205.5t-39.5 -173.5q0 -72 13 -137q0 -14 -11 -14h-180q-14 0 -20 16q-15 61 -15 139z" />
<glyph unicode="&#x2019;" horiz-adv-x="464" d="M80 942q78 184 78 361q0 70 -15 151q0 12 13 12h182q12 0 18 -14q14 -61 15 -145q0 -199 -95 -367q-12 -12 -18 -12h-170q-10 0 -10 7q0 3 2 7z" />
<glyph unicode="&#x201a;" horiz-adv-x="464" d="M80 -219q78 184 78 360q0 74 -15 150q0 14 11 14h184q14 0 16 -14q16 -59 17 -146q0 -199 -95 -366q-8 -12 -18 -12h-170q-10 0 -10 7q0 3 2 7z" />
<glyph unicode="&#x201c;" horiz-adv-x="827" d="M111 1065q0 10 -1 20q0 177 70 369q6 12 17 12h165q8 0 9 -14q-51 -217 -52 -387q0 -70 9 -127q0 -12 -11 -12h-184q-12 0 -14 14q-9 38 -9 90q0 17 1 35zM481 1065q0 197 70 389q6 12 18 12h166q7 0 8 -8q0 -3 -2 -8q-51 -205 -51 -385q0 -88 8 -127q0 -12 -12 -12h-180 q-14 0 -17 14q-8 35 -8 125z" />
<glyph unicode="&#x201d;" horiz-adv-x="827" d="M104 942q51 217 52 385q0 70 -9 127q0 12 13 12h180q12 0 14 -14q10 -45 11 -125q0 -199 -72 -389q-6 -12 -17 -12h-165q-9 0 -10 6q0 4 3 10zM524 1327q0 84 -6 127q0 12 8 12h187q12 0 14 -14q9 -38 9 -89q0 -17 -1 -36q0 -197 -69 -389q-6 -12 -17 -12h-166q-9 0 -9 8 q0 72 25 203t25 190z" />
<glyph unicode="&#x201e;" horiz-adv-x="827" d="M104 -219q51 217 52 385q0 70 -9 127q0 12 13 12h180q12 0 14 -14q10 -45 11 -125q0 -199 -72 -389q-6 -12 -17 -13h-165q-9 0 -10 7q0 4 3 10zM524 166q0 84 -6 127q0 12 8 12h187q12 0 14 -14q9 -38 9 -90q0 -17 -1 -35q0 -197 -69 -389q-6 -12 -17 -13h-166q-9 0 -9 9 q0 72 25 203t25 190z" />
<glyph unicode="&#x2022;" horiz-adv-x="753" d="M150 524.5q0 96.5 61 160t166 63.5q102 0 164.5 -65t62.5 -159q0 -98 -61.5 -160.5t-166 -62.5t-165.5 63.5t-61 160z" />
<glyph unicode="&#x2026;" horiz-adv-x="1794" d="M119 129q0 68 42 109t107.5 41t107.5 -42t42 -108q0 -68 -40 -108.5t-110 -40.5q-66 0 -107.5 40.5t-41.5 108.5zM727 129q0 68 42 109t108 41q68 0 108.5 -42t40.5 -108q0 -68 -40 -108.5t-109 -40.5q-66 0 -108 40.5t-42 108.5zM1339 129q0 68 42 109t107.5 41 t107.5 -42t42 -108q0 -68 -39.5 -108.5t-109.5 -40.5q-66 0 -108 40.5t-42 108.5z" />
<glyph unicode="&#x202f;" horiz-adv-x="348" />
<glyph unicode="&#x2039;" horiz-adv-x="903" d="M160 436v125q0 10 12 17l530 362q18 10 19 -12v-174q0 -14 -12 -25l-340 -231l340 -234q12 -8 12 -24v-181q0 -18 -19 -10l-532 369q-10 6 -10 18z" />
<glyph unicode="&#x203a;" horiz-adv-x="903" d="M180 59v170q0 14 13 23l333 240l-333 235q-12 12 -13 25v176q3 15 11 14q4 0 10 -4l530 -369q10 -4 10 -18v-123q0 -12 -10 -16l-532 -363q-6 -3 -11 -3q-8 -1 -8 13z" />
<glyph unicode="&#x205f;" horiz-adv-x="436" />
<glyph unicode="&#x20ac;" d="M72 512v94q0 14 10 15h88q0 72 4 104h-88q-14 0 -14 12v97q0 12 10 12h108q39 225 196 368.5t388 143.5q158 0 246 -47q14 -6 14 -25v-166q0 -8 -6 -11t-12 1q-102 51 -234 51q-152 0 -240.5 -88t-115.5 -227h461q10 0 10 -10v-99q0 -12 -12 -12h-469q-5 -29 -6 -66 q0 -18 2 -38h473q12 0 12 -13v-96q0 -12 -12 -12h-455q23 -147 116 -232.5t234 -85.5q145 0 244 45q12 8 12 -6v-168q0 -14 -12 -20q-100 -53 -274 -53q-240 0 -385.5 140t-178.5 380h-102q-12 0 -12 12z" />
<glyph unicode="&#x2122;" horiz-adv-x="663" d="M16 1210l7 52q2 2 6 2h229q4 0 4 -2l6 -52q0 -6 -4 -6h-86v-209q0 -6 -6 -6h-63q-4 0 -5 4v211h-84q-4 0 -4 6zM285 993l20 267q0 4 6 4h88q6 0 9 -4l24 -78l22 -69q7 -24 9 -32h2q0 6 61 181q0 2 6 2h84q6 0 7 -4l12 -265q0 -6 -6 -6h-64q-4 0 -4 6q-2 166 -2 217h-2 q-10 -55 -63 -208l-2 -3q-2 -4 -5 -4h-55q-6 0 -8 7q-55 188 -59 210h-3q0 -63 -8 -221q0 -4 -4 -4h-59q-6 0 -6 4z" />
<glyph unicode="&#xe000;" horiz-adv-x="995" d="M0 995h995v-995h-995v995z" />
<glyph unicode="&#xfb01;" horiz-adv-x="1112" d="M18 831v150q0 14 13 14h127q18 240 148 357.5t341 117.5q168 0 252 -47q10 -6 10 -22v-178q0 -18 -14 -13q-113 61 -242 62q-238 0 -247 -277h555q14 0 14 -16v-961q0 -18 -17 -18h-210q-18 0 -19 18v791h-328v-791q0 -18 -16 -18h-213q-16 0 -16 18v793l-125 4 q-13 2 -13 16z" />
<glyph unicode="&#xfb02;" horiz-adv-x="1175" d="M18 829v152q0 14 13 14h125v58q0 197 96 307t244 110q82 0 112 -14q12 -6 13 -20v-166q0 -18 -15 -13q-25 8 -67 9q-59 0 -98.5 -49.5t-39.5 -157.5v-64h177q16 0 16 -14v-152q0 -16 -16 -16l-177 -6v-789q0 -18 -16 -18h-213q-16 0 -16 18v791l-125 4q-13 2 -13 16z M758 1436q0 16 16 16h213q18 0 19 -16v-1192q0 -78 61 -78q14 0 47 4q6 2 8 -1t2 -9v-137q0 -18 -12 -23q-45 -20 -131 -20q-109 0 -166 56t-57 195v1205z" />
<glyph unicode="&#xfb03;" horiz-adv-x="1740" d="M18 827v154q0 14 13 14h125v41q0 205 100 319.5t258 114.5q72 0 102 -14q12 -6 13 -20v-166q0 -14 -15 -13q-31 10 -67 11q-145 0 -146 -226v-47h371v35q0 217 96.5 328.5t251.5 111.5q55 0 82 -10q10 -4 10 -16v-170q0 -6 -2 -10t-8 -2q-37 6 -53 6q-129 0 -129 -226 v-47h170q14 0 14 -14v-152q0 -16 -14 -16l-170 -4v-791q0 -18 -16 -18h-213q-18 0 -19 16v793h-371v-791q0 -18 -16 -18h-213q-16 0 -16 18v793l-127 4q-11 0 -11 12zM1346 1255.5q0 57.5 38.5 93t100 35.5t98.5 -35.5t37 -93t-38 -92.5t-101 -35q-61 0 -98 35t-37 92.5z M1358 16v963q0 14 16 14h215q16 0 17 -14v-963q0 -18 -17 -18h-213q-18 0 -18 18z" />
<glyph unicode="&#xfb04;" horiz-adv-x="1792" d="M18 827v154q0 14 13 14h125v41q0 205 100 319.5t258 114.5q72 0 102 -14q12 -6 13 -20v-166q0 -14 -15 -13q-31 10 -67 11q-145 0 -146 -226v-47h371v43q0 217 96.5 324.5t251.5 107.5q55 0 82 -10q10 -4 10 -16v-170q0 -6 -2 -10t-8 -2q-37 6 -53 6q-129 0 -129 -226 v-47h170q14 0 14 -14v-152q0 -16 -14 -16l-170 -4v-791q0 -18 -16 -18h-213q-18 0 -19 16v793h-371v-791q0 -18 -16 -18h-213q-16 0 -16 18v793l-127 4q-11 0 -11 12zM1376 1436q0 16 17 16h213q16 0 16 -16v-1192q0 -78 64 -78q14 0 47 4q4 2 7 -1t3 -9v-137q0 -18 -14 -23 q-45 -20 -130 -20q-109 0 -166 56t-57 195v1205z" />
</font>
</defs>
</svg>
